<svg version="1.2" xmlns="http://www.w3.org/2000/svg" width="512" height="512"><style>.s0{fill:#000}</style><g id="Layer"><path id="Layer" class="s0" d="M82.5 1.4c5.3 2.3 7.9 8.9 5.4 13.9-.6 1.2-7 8.2-14.2 15.4L60.5 44h52c28.6 0 53.7.4 55.8.9 7.8 1.8 11.7 9.2 8.3 15.5-3.4 6.3-.9 6.1-61 6.4l-54.9.3 13.5 13.7c8.2 8.2 13.9 14.8 14.3 16.4 1.7 6.7-3.6 13.8-10.3 13.8-5.5 0-8.3-2.3-33.3-27.6-22.3-22.5-24.1-25-22.4-30.6.8-2.6 45.4-48 50-50.9 3.6-2.3 5.5-2.4 10-.5zm359.8 24.4c25.5 25.4 26.9 27.4 24.3 33.6-.8 1.7-12.4 14-25.8 27.3-24.3 24.1-24.5 24.3-28.7 24.3-3.6 0-4.9-.6-7.7-3.4s-3.4-4.1-3.4-7.7c0-4.1.4-4.6 14.2-18.6L429.4 67h-53.7c-58.1 0-58.5 0-62-5.3-3.2-4.9-1.7-12.1 3.2-15.4 2.4-1.7 7.2-1.8 56.9-2.3l54.2-.5L417.4 33C404.1 19.9 401 15.7 401 11.3c0-4.5 1.4-7 5.3-9.3 7.1-4.4 9-3.1 36 23.8z"/><path id="Layer" fill-rule="evenodd" class="s0" d="M287.1 97.7c1.8 5.2 1.9 8.6 1.9 46 0 22.1.2 40.3.5 40.3s2.3-.9 4.5-2c10.4-5.3 25.4-4.8 37.7 1.2 7.1 3.5 15.9 12 19.3 18.8 1.2 2.5 2.4 4.7 2.6 4.9.2.2 3-.8 6.1-2.2 17.4-7.8 37.2-4.1 50.3 9.3 3 3 6.6 7.9 7.9 10.8 1.4 2.9 2.7 5.1 3 4.9 7.4-4.1 13.4-6 21.3-6.5 13.7-.8 23.8 2.9 33.5 12 5.5 5.3 8.8 10.4 11.9 18.4 1.7 4.5 1.9 9.6 2.2 69.4.4 69.5-.2 82.4-4.3 97.7-8.8 32.9-31 60.7-61.6 77.2-12.3 6.6-23.8 10.3-39.4 12.6-14.4 2.1-73.8 2.1-85.9 0-15-2.6-29-8.4-41.5-17.2-4-2.8-39.3-37.2-90.8-88.7-95.1-94.9-89.8-88.8-89.8-104.1 0-6.6.5-9 2.7-13.8 8.5-18 35.7-30.1 58-25.6 12.9 2.6 18.1 5.5 44.3 25.2l18 13.6.5-98.2c.5-77.7.9-99 1.9-102.2 5.1-15.4 16.9-27.1 31.1-30.9 22.9-6.1 46.3 6.4 54.1 29.1zm-41-8.4c-7.6-.6-14.8 2.9-19.4 9.5l-3.2 4.7-.5 111.2c-.5 110.9-.5 111.2-2.6 114-1.1 1.5-3.2 3.4-4.5 4.1-5.1 2.7-8 1.1-38.6-21.8-16.2-12.2-31.5-23.2-33.9-24.5-12.8-6.8-29-4.9-39.8 4.6-4.7 4.1-6.2 8.7-4.3 13.1.9 2 34.2 35.9 85.3 86.9 90.9 90.7 88.8 88.8 105.4 94.3 11.4 3.8 20.7 4.6 50.8 4.6 40.7 0 51.8-1.7 70.7-11 23-11.2 42.3-32.9 50.3-56.5 5.1-15.2 5.2-16.5 5.2-91.2 0-78.3.3-74.6-7.4-81-11.6-9.5-28.4-5.6-34.7 8.2-1.4 2.9-1.9 6.4-1.9 12.8 0 12.7-3.2 17.7-11.3 17.7-3.1 0-4.6-.7-7.3-3.4l-3.4-3.4v-18.6c0-10.2-.5-20.7-1.1-23.4-1.3-6.1-6.6-12.7-12.3-15.3-12.3-5.6-27 1.4-30.5 14.6-.6 2.2-1.1 12.7-1.1 23.4v19.3l-3.4 3.4c-4.6 4.6-10.1 4.8-14.8.5l-3.3-2.9-.5-33.4c-.5-31.7-.6-33.5-2.7-37.3-4.1-7.7-11-11.8-19.8-11.8-6.2 0-11.1 2-15.4 6.4-6.4 6.4-6.5 7.1-6.9 42.4-.2 22.2-.6 32.7-1.4 34.3-2.5 4.9-11.1 6.8-15.7 3.6-5.2-3.7-5.1-1.8-5.1-94.6 0-81.6-.1-86.5-1.9-90.3-2.1-4.6-6.2-9-10.5-11.2-1.6-.8-5.4-1.7-8.5-2z"/></g></svg>