<svg width="75" height="74" fill="none" xmlns="http://www.w3.org/2000/svg"><path d="M24.445 2.932a2.8 2.8 0 011.399-.171c.452.073.854.253 1.205.538.354.292.62.676.8 1.152.18.482.234.946.158 1.392-.076.447-.26.844-.555 1.191a2.8 2.8 0 01-1.164.794 2.692 2.692 0 01-1.197.178 1.918 1.918 0 01-1.047-.42l.362-.513c.256.182.528.285.816.31.288.024.575-.018.861-.126.342-.129.62-.324.835-.586.217-.256.352-.554.405-.894.053-.34.009-.7-.134-1.078a2.11 2.11 0 00-.61-.9 1.847 1.847 0 00-.897-.413 1.999 1.999 0 00-1.01.119c-.287.108-.53.265-.731.473-.2.208-.338.462-.414.762l-.609-.147c.072-.383.242-.718.51-1.007.27-.282.609-.5 1.017-.654zM17.76 6.273l3.202 4.012-.55.44-4.278-1.628.23-.183.609 4.556-.505.402-3.202-4.012.496-.396 2.709 3.393-.136.033-.554-4.237.244-.195 4.048 1.498-.096.114-2.715-3.4.497-.397zM7.645 16.608a2.704 2.704 0 011.005-.945 2.54 2.54 0 011.284-.277c.458.024.9.174 1.328.45.433.279.752.62.957 1.024.205.404.294.83.268 1.279a2.669 2.669 0 01-.447 1.306c-.275.427-.612.745-1.01.953a2.377 2.377 0 01-1.276.282c-.453-.02-.895-.17-1.328-.449a2.682 2.682 0 01-.957-1.024 2.445 2.445 0 01-.277-1.284c.03-.455.18-.893.453-1.314zm.517.334a1.964 1.964 0 00-.33.963c-.013.333.062.649.226.948.166.309.415.571.75.787.34.219.681.338 1.025.358.34.026.656-.037.949-.19.298-.15.546-.377.744-.684.198-.307.303-.627.316-.96a1.796 1.796 0 00-.212-.95 2.11 2.11 0 00-.75-.787 2.146 2.146 0 00-1.025-.359 1.87 1.87 0 00-.963.194c-.292.152-.535.38-.73.68zM3.78 24.83l4.5 1.397-.229.113.63-2.026.578.18-1.36 4.38-.579-.18.63-2.027.125.223-4.501-1.398.206-.663zM2.014 35.178c.008-.443.117-.842.325-1.197.216-.354.517-.635.906-.843.395-.202.873-.297 1.433-.286.56.01 1.031.123 1.412.339.387.216.678.505.874.867.195.362.288.768.28 1.218-.01.489-.128.923-.357 1.304a2.309 2.309 0 01-.936.902c-.395.214-.85.316-1.365.307-.522-.01-.976-.13-1.363-.358a2.395 2.395 0 01-.901-.937 2.576 2.576 0 01-.308-1.316zM.216 32.494l7.029.132-.013.665-1.544-.03-1.026-.087-1.038.078-3.421-.064.013-.694zm2.415 2.647c-.007.365.068.692.226.982.164.29.394.523.69.698.304.175.654.266 1.052.273.397.008.748-.07 1.05-.234a1.87 1.87 0 00.717-.671c.175-.284.266-.608.273-.973a1.938 1.938 0 00-.236-.992 1.868 1.868 0 00-.691-.698 2.156 2.156 0 00-1.041-.264 2.214 2.214 0 00-1.06.225 1.87 1.87 0 00-.718.671c-.168.29-.256.618-.262.983zm.805 10.455c-.15-.513-.176-.995-.077-1.445.106-.452.314-.842.626-1.171.317-.33.72-.567 1.208-.71.488-.143.95-.166 1.386-.07a2.48 2.48 0 011.825 1.748c.136.464.15.905.04 1.324-.1.423-.31.794-.632 1.112-.315.316-.72.546-1.214.69a.661.661 0 01-.106.022l-.103.03-1.254-4.289.497-.146 1.15 3.933-.274-.205c.357-.105.65-.275.88-.512a1.72 1.72 0 00.475-.812 1.81 1.81 0 00-.031-.979 1.852 1.852 0 00-.501-.841 1.7 1.7 0 00-.84-.437 2.108 2.108 0 00-1.033.057l-.104.03a2.07 2.07 0 00-.923.536 1.9 1.9 0 00-.463.889c-.069.346-.047.71.064 1.091.088.3.223.564.404.79.183.23.412.408.686.532l-.322.502a2.197 2.197 0 01-.842-.65 2.858 2.858 0 01-.522-1.02zm3.663 8.217l4.002-2.49-.065.248-1.12-1.802.514-.32 2.422 3.894-.514.32-1.121-1.801.25.051-4.001 2.49-.367-.59zm8.621 5.327c.467.446.726.885.777 1.317.055.437-.097.847-.458 1.233-.375.4-.795.581-1.262.546-.462-.031-.941-.283-1.436-.756l-1.506-1.425 3.51-3.746.507.475-1.224 1.306 1.093 1.05zm-2.047 1.928c.343.33.67.506.98.528.318.022.609-.107.872-.388.263-.28.367-.567.311-.86-.051-.299-.25-.615-.598-.95l-.964-.93-1.565 1.67.964.93zm13.217 8.856l1.14-5.006 4.5 1.025-1.14 5.005-.676-.154L31.76 66.2l.13.22-3.49-.794.213-.142-1.045 4.595-.677-.154zm13.529 1.324c-.441.04-.85-.024-1.225-.194a2.308 2.308 0 01-.937-.809c-.243-.37-.39-.835-.44-1.394-.05-.558.01-1.038.184-1.44.173-.408.428-.73.768-.963.339-.233.732-.37 1.18-.41.487-.045.932.026 1.335.213a2.3 2.3 0 01.998.833c.256.37.407.81.454 1.324.047.52-.023.984-.209 1.393-.185.41-.463.743-.833.999a2.577 2.577 0 01-1.275.448zm-2.474 2.08l-.631-7.004.662-.06.139 1.54.024 1.028.19 1.024.308 3.41-.692.061zm2.37-2.689c.364-.033.681-.143.952-.331.27-.195.477-.449.619-.763.141-.32.194-.679.158-1.075a2.091 2.091 0 00-.347-1.02 1.87 1.87 0 00-.745-.639 1.885 1.885 0 00-.997-.165 1.938 1.938 0 00-.961.342c-.27.194-.477.448-.619.762a2.157 2.157 0 00-.15 1.064c.036.397.15.74.34 1.03.195.284.443.497.744.64a2 2 0 001.006.155zm10.305-1.934c-.493.205-.97.282-1.427.233a2.497 2.497 0 01-1.233-.495 2.682 2.682 0 01-.837-1.125c-.195-.47-.268-.926-.219-1.37a2.482 2.482 0 011.54-2.005 2.452 2.452 0 011.311-.184 2.28 2.28 0 011.175.509c.348.279.621.656.819 1.132a.65.65 0 01.032.103l.04.1-4.127 1.712-.2-.48 3.786-1.57-.174.295a1.964 1.964 0 00-.605-.818 1.72 1.72 0 00-.858-.385 1.82 1.82 0 00-.97.137 1.852 1.852 0 00-.782.59 1.693 1.693 0 00-.343.883c-.033.331.024.671.169 1.02l.04.1c.15.361.361.648.633.86a1.9 1.9 0 00.934.364c.352.03.711-.03 1.079-.183.289-.12.536-.282.74-.487.21-.207.362-.454.456-.74l.533.267c-.105.34-.29.642-.555.907a2.858 2.858 0 01-.956.63zm8.14-4.743a3.17 3.17 0 00.77-.868 2.03 2.03 0 00.305-.933c.011-.31-.08-.584-.27-.823-.245-.306-.569-.443-.971-.414-.397.026-.825.223-1.282.59l.093.163c.26-.208.458-.434.596-.679.139-.244.21-.49.214-.735a1.011 1.011 0 00-.233-.665 1.016 1.016 0 00-.688-.39c-.283-.04-.589 0-.917.122-.324.117-.642.31-.955.577a3.294 3.294 0 00-.622.662 4.39 4.39 0 00-.475.83l.49.298a3.61 3.61 0 01.443-.744c.17-.227.35-.423.545-.587a2.69 2.69 0 01.649-.395c.214-.087.41-.119.588-.095a.64.64 0 01.446.244.638.638 0 01.146.448.974.974 0 01-.174.502c-.112.174-.267.34-.466.499l-.648.52.318.396.687-.55c.335-.27.649-.42.94-.453.287-.038.516.05.688.264.118.147.173.32.165.519a1.288 1.288 0 01-.207.617 2.61 2.61 0 01-.563.627c-.25.2-.53.366-.842.498a2.784 2.784 0 01-.934.21l.148.546a2.865 2.865 0 001.056-.232c.35-.147.67-.336.96-.569zm7.121-7.517c-.307.437-.668.757-1.082.96-.419.2-.854.28-1.305.242a2.681 2.681 0 01-1.309-.502c-.416-.293-.722-.64-.918-1.04a2.437 2.437 0 01-.234-1.265c.034-.446.188-.863.462-1.253.278-.394.614-.68 1.009-.856a2.282 2.282 0 011.264-.2c.443.05.876.222 1.297.519a.667.667 0 01.082.07l.088.061-2.57 3.656-.424-.299 2.357-3.35.01.341a1.963 1.963 0 00-.948-.368 1.72 1.72 0 00-.931.134c-.291.13-.54.342-.746.636a1.852 1.852 0 00-.346.916 1.7 1.7 0 00.184.93c.15.296.379.553.688.77l.088.063c.32.225.651.354.994.388a1.9 1.9 0 00.984-.192c.314-.163.585-.406.813-.732a2.25 2.25 0 00.365-.807 1.811 1.811 0 00-.01-.869l.592-.06c.093.343.098.698.017 1.063-.078.36-.235.708-.47 1.044zm3.889-7.097l-4.89-1.565.211-.66 2.161.69.986-3.082-2.16-.691.211-.661 4.89 1.564-.212.66-2.16-.69-.987 3.082 2.16.692-.21.66zm2.405-11.64l-4.711-.128.19-.171-.058 2.12-.606-.016.125-4.584.606.017-.058 2.12-.18-.18 4.71.128-.018.694zm-1.268-10.934l-1.1.275-.174.073-1.84.46c-.424.105-.72.307-.887.604-.17.29-.196.67-.079 1.138.08.323.21.616.391.88.18.264.384.475.612.634l-.427.429a2.712 2.712 0 01-.721-.788 3.567 3.567 0 01-.46-1.074c-.16-.646-.123-1.182.112-1.61.228-.434.668-.732 1.32-.894l3.092-.772.161.645zm.476 1.705c.093.373.114.714.064 1.022a1.538 1.538 0 01-.356.754 1.39 1.39 0 01-.705.408c-.26.065-.508.063-.747-.005-.246-.073-.468-.233-.664-.48-.203-.25-.365-.614-.483-1.088l-.429-1.717.503-.126.424 1.699c.12.48.29.794.507.941.217.141.451.18.704.117a.844.844 0 00.6-.503c.116-.264.124-.595.025-.994-.095-.379-.262-.683-.5-.913a1.561 1.561 0 00-.91-.417l.426-.268c.36.044.678.2.953.467.274.261.47.629.588 1.103zm-3.012-8.343L63.99 22.81l-.362-.592 3.865-2.358-1.635-2.68-3.864 2.358-.362-.593 4.382-2.673 2.358 3.864zm-1.39-4.661l-1.11.677-.041-.18.545.892-.518.316-.794-1.302 1.577-.963.341.56zm-5.115-4.195l-3.343 3.895-.527-.452 2.656-3.094-5.26.859-.468-.401 3.344-3.896.526.452-2.661 3.102 5.258-.873.475.407zm-8.935-6.526l-1.828 4.797-.648-.247.787-2.065-1.462-.557.226-.594 1.462.557.815-2.138.648.247zm-4.112-1.62a2.63 2.63 0 011.115.781c.278.35.451.748.519 1.192.065.45.008.913-.173 1.389-.184.48-.449.865-.795 1.151a2.415 2.415 0 01-1.177.535 2.63 2.63 0 01-1.352-.16 2.576 2.576 0 01-1.106-.777 2.414 2.414 0 01-.522-1.182c-.068-.445-.01-.907.173-1.389.181-.475.446-.859.795-1.151a2.48 2.48 0 011.18-.544 2.58 2.58 0 011.343.155zm-.216.567a1.815 1.815 0 00-.986-.104 1.82 1.82 0 00-.872.421 2.214 2.214 0 00-.604.9 2.178 2.178 0 00-.148 1.074 1.817 1.817 0 001.179 1.465c.329.125.657.16.986.103.32-.053.61-.19.868-.412a2.18 2.18 0 00.605-.9c.142-.371.19-.73.148-1.074a1.82 1.82 0 00-.371-.894 1.848 1.848 0 00-.805-.579z" fill="#fff"/><circle cx="36.794" cy="4.551" r="1.048" fill="#fff"/><circle cx="21.429" cy="64.616" r="1.048" fill="#fff"/></svg>