<svg width="157" height="155" fill="none" xmlns="http://www.w3.org/2000/svg"><path d="M63.407 11.314c1.064-.154 2.053-.061 2.967.28a5.35 5.35 0 012.253 1.657c.6.762.98 1.675 1.139 2.737.16 1.077.062 2.059-.293 2.945a5.14 5.14 0 01-1.677 2.206c-.777.586-1.697.956-2.76 1.11-.914.133-1.765.075-2.554-.172a4.075 4.075 0 01-1.976-1.343l.974-.893c.45.492.966.828 1.55 1.008.584.18 1.197.223 1.838.13.763-.11 1.425-.387 1.986-.83.563-.43.975-.984 1.236-1.663.261-.678.329-1.44.203-2.284-.126-.845-.413-1.555-.86-2.13a3.925 3.925 0 00-1.672-1.262c-.664-.252-1.378-.322-2.141-.212a4.128 4.128 0 00-1.722.647c-.507.338-.905.8-1.194 1.384l-1.193-.579a4.2 4.2 0 011.5-1.846c.684-.461 1.483-.758 2.396-.89zm-22.965 9.114l6.994 8.294-1.172.917-9.244-3.337.489-.382 1.429 9.448-1.075.84-6.994-8.295 1.059-.827 5.915 7.015-.292.07-1.303-8.786.52-.407 8.748 3.07-.204.238-5.928-7.03 1.058-.828zm-22.54 30.578c.385-.974.95-1.771 1.699-2.392a5.567 5.567 0 012.564-1.152c.966-.16 1.954-.056 2.963.313 1.022.374 1.833.927 2.433 1.66.6.732.967 1.563 1.104 2.493.137.93.01 1.889-.379 2.876-.394 1-.963 1.803-1.706 2.411a5.208 5.208 0 01-2.544 1.16c-.954.164-1.941.06-2.964-.314-1.009-.37-1.82-.922-2.432-1.66a4.982 4.982 0 01-1.124-2.5c-.131-.943-.003-1.908.387-2.895zm1.223.447c-.288.731-.381 1.438-.28 2.12.114.687.405 1.3.874 1.837.477.556 1.11.978 1.9 1.267.802.293 1.566.382 2.293.266a3.791 3.791 0 001.9-.822c.56-.441.98-1.02 1.263-1.738.283-.718.368-1.42.254-2.107a3.66 3.66 0 00-.848-1.85c-.463-.55-1.096-.973-1.899-1.266-.789-.29-1.553-.378-2.293-.267a4.097 4.097 0 00-1.928.835 4.141 4.141 0 00-1.236 1.725zM11.64 78.956l9.933-.749-.361.4-.364-4.47 1.278-.096.785 9.661-1.278.096-.363-4.47.422.342-9.933.748-.119-1.462zm6.548 28.425c-.492-.797-.752-1.624-.779-2.481-.015-.864.21-1.692.677-2.482.486-.786 1.244-1.473 2.272-2.061 1.029-.589 2.011-.897 2.948-.926.95-.035 1.808.164 2.576.596.77.433 1.403 1.054 1.902 1.863.543.88.824 1.782.844 2.706a4.65 4.65 0 01-.666 2.618c-.471.809-1.18 1.484-2.124 2.025-.957.547-1.917.827-2.88.838a5.308 5.308 0 01-2.707-.688c-.833-.459-1.52-1.129-2.063-2.008zm-6.331-2.827l12.897-7.379.738 1.196-2.834 1.622-1.96.954-1.793 1.264-6.278 3.592-.77-1.249zm7.406 2.093c.405.656.917 1.157 1.534 1.502.63.338 1.313.502 2.05.492.751-.017 1.49-.234 2.22-.651.73-.417 1.276-.936 1.637-1.556a3.76 3.76 0 00.532-1.97c-.007-.694-.213-1.369-.618-2.025a4.195 4.195 0 00-1.563-1.51 4.144 4.144 0 00-2.05-.492c-.732.021-1.462.241-2.191.658-.73.418-1.285.934-1.666 1.548a3.766 3.766 0 00-.532 1.971c.026.698.242 1.376.647 2.033zm20.174 25.394c-.976-.567-1.71-1.264-2.2-2.09a5.026 5.026 0 01-.691-2.671c.03-.954.329-1.887.9-2.798.57-.91 1.271-1.602 2.103-2.074a5.402 5.402 0 012.675-.691c.96-.001 1.873.252 2.743.757.882.512 1.538 1.164 1.968 1.956.45.786.648 1.65.595 2.59-.046.929-.358 1.855-.935 2.777-.037.059-.083.12-.139.183a82.9 82.9 0 00-.12.192l-8.167-4.744.582-.928 7.487 4.35-.73.077c.416-.666.636-1.342.66-2.029a3.463 3.463 0 00-.411-1.911c-.318-.582-.804-1.064-1.46-1.445a4.02 4.02 0 00-2.007-.569 3.77 3.77 0 00-1.965.531c-.615.359-1.135.877-1.559 1.555l-.12.192c-.44.701-.672 1.41-.699 2.127a3.822 3.822 0 00.544 2.011c.389.624.947 1.147 1.673 1.57a4.844 4.844 0 001.777.626 4.01 4.01 0 001.857-.163l.21 1.22a4.849 4.849 0 01-2.274.208c-.78-.103-1.546-.373-2.297-.809zm27.412 11.242l1.05-9.905.329.427-4.463-.439.135-1.274 9.646.948-.135 1.274-4.463-.438.411-.355-1.05 9.906-1.46-.144zm27.528-8.019c1.303-.405 2.386-.435 3.249-.09.876.34 1.497 1.038 1.862 2.092.38 1.094.303 2.051-.228 2.873-.518.818-1.468 1.442-2.85 1.872l-4.177 1.321-3.555-10.25 1.397-.45 1.239 3.574 3.063-.942zm1.589 5.718c.962-.295 1.618-.716 1.968-1.263.358-.563.404-1.229.138-1.997s-.703-1.25-1.31-1.445c-.612-.209-1.405-.163-2.38.136l-2.71.827 1.585 4.569 2.709-.827zm32.277-20.543c-.655.817-1.433 1.414-2.334 1.79a5.646 5.646 0 01-2.802.359c-.976-.125-1.894-.509-2.756-1.151-.873-.65-1.49-1.41-1.852-2.28a4.945 4.945 0 01-.33-2.693c.141-.925.543-1.801 1.206-2.629.672-.839 1.454-1.441 2.347-1.806a5.287 5.287 0 012.785-.372c.965.117 1.883.501 2.756 1.151.862.642 1.48 1.402 1.852 2.28.37.86.486 1.761.347 2.705-.15.936-.556 1.818-1.219 2.646zm-1.045-.778c.491-.613.788-1.259.891-1.938a3.603 3.603 0 00-.302-2.001c-.295-.667-.78-1.251-1.454-1.753-.685-.51-1.394-.815-2.126-.913a3.848 3.848 0 00-2.068.236c-.667.259-1.241.69-1.723 1.292-.483.602-.77 1.247-.861 1.934a3.605 3.605 0 00.272 2.005c.284.658.769 1.242 1.454 1.753.674.502 1.383.806 2.126.913a4.16 4.16 0 002.098-.24 4.166 4.166 0 001.693-1.288zm15.343-24.311l-9.741-2.083.466-.28-.991 4.373-1.253-.268 2.142-9.452 1.253.267-.991 4.374-.302-.445 9.741 2.082-.324 1.431zm2.457-26.781c-.193-.875-.502-1.635-.926-2.28-.427-.659-.923-1.15-1.488-1.472a2.594 2.594 0 00-1.819-.287c-.811.163-1.377.635-1.698 1.416-.325.767-.354 1.757-.087 2.968l.398-.017c-.151-.686-.394-1.277-.728-1.772-.335-.494-.734-.864-1.197-1.108a2.172 2.172 0 00-1.484-.207 2.105 2.105 0 00-1.386.91c-.344.49-.555 1.102-.633 1.835-.081.718-.015 1.499.199 2.341.136.62.36 1.22.672 1.804a9.424 9.424 0 001.134 1.69l1.026-.628a7.764 7.764 0 01-.998-1.549 7.403 7.403 0 01-.603-1.585 5.628 5.628 0 01-.14-1.595c.035-.485.159-.882.372-1.192a1.33 1.33 0 01.884-.599c.351-.07.68-.017.987.16.304.164.568.434.793.81.224.377.393.827.509 1.352l.378 1.716 1.054-.212-.401-1.816c-.195-.888-.187-1.62.024-2.197.198-.574.581-.918 1.148-1.032a1.624 1.624 0 011.143.192c.37.207.696.535.978.984.282.45.503 1.002.662 1.659a7.51 7.51 0 01.156 2.054 5.742 5.742 0 01-.48 1.951l1.177.249c.318-.668.502-1.4.552-2.197a8.402 8.402 0 00-.178-2.346zm-14.249-32.385l-8.432 6.827-.965-1.105 8.432-6.827.965 1.105zm-1.503 8.95c-.887-1.036-1.336-2.01-1.347-2.922-.011-.912.417-1.72 1.284-2.422.9-.728 1.844-.997 2.834-.806.989.191 1.95.83 2.882 1.918l2.813 3.25-8.433 6.827-.965-1.105 2.939-2.38-2.007-2.36zm4.854-3.452c-.66-.776-1.319-1.227-1.975-1.35-.677-.126-1.331.067-1.962.579-.632.511-.925 1.076-.879 1.694.036.627.388 1.333 1.058 2.12l1.762 2.08 3.759-3.043-1.763-2.08zM111.293 18.98l-3.961 10.1-4.501-1.651c-1.151-.423-1.971-.973-2.46-1.651-.501-.683-.586-1.448-.254-2.294.322-.821.888-1.34 1.697-1.556.805-.204 1.725-.116 2.76.264l-.43.304c-1.216-.446-2.021-.998-2.414-1.656-.393-.657-.423-1.41-.091-2.256.342-.872.932-1.433 1.77-1.683.82-.242 1.902-.116 3.247.377l4.637 1.702zm-1.761.586l-3.24-1.19c-.867-.317-1.573-.422-2.118-.314-.563.116-.966.482-1.207 1.097-.242.616-.217 1.139.073 1.568.29.43.869.803 1.735 1.12l3.376 1.24 1.381-3.521zm-1.781 4.54l-3.065-1.125c-.789-.29-1.449-.362-1.978-.22-.543.14-.925.49-1.146 1.055-.221.564-.174 1.066.142 1.505.304.434.85.796 1.639 1.085l3.065 1.125 1.343-3.424z" fill="#fff"/><circle cx="109.982" cy="130" r="2.214" fill="#fff"/><circle cx="85.214" cy="16.214" r="2.214" fill="#fff"/></svg>