<svg width="565" height="351" fill="none" xmlns="http://www.w3.org/2000/svg"><path fill-rule="evenodd" clip-rule="evenodd" d="M284.118 1.904h-2.336v.003h-51.061c-5.143 11.584-9.811 19.047-15.137 24.764-5.292 5.682-11.189 9.59-18.699 14.104 3.071 38.659 11.111 65.815 25.04 88.589 13.878 22.691 33.647 41.108 60.373 62.233 26.728-21.127 46.499-39.544 60.378-62.237 13.928-22.774 21.968-49.93 25.04-88.589-7.51-4.513-13.408-8.422-18.7-14.103-5.325-5.718-9.993-13.18-15.136-24.764h-49.762zM280.812 0v.004h-51.331l-.25.568c-5.196 11.802-9.826 19.206-15.039 24.802-5.215 5.6-11.058 9.441-18.79 14.072l-.506.303.046.587c3.052 39.169 11.159 66.801 25.36 90.02 13.552 22.158 32.612 40.227 57.945 60.453l3.89 3.89 4.22-3.896c25.331-20.225 44.391-38.293 57.942-60.45 14.201-23.22 22.308-50.852 25.36-90.02l.046-.588-.506-.303c-7.732-4.63-13.575-8.473-18.79-14.071-5.213-5.597-9.843-13-15.039-24.802L335.12 0h-54.308zm46.058 8.843h1.912l.77 1.75c4.472 10.159 8.391 16.374 12.71 21.012 4.326 4.644 9.194 7.863 15.905 11.883l1.557.932-.141 1.81c-2.676 34.345-10.027 58.813-22.844 79.449-12.783 20.582-30.867 37.121-54.548 55.794l-.02-.025-.02.025c-23.682-18.673-41.76-35.213-54.537-55.794-12.812-20.636-20.158-45.105-22.833-79.45l-.141-1.809 1.556-.932c6.712-4.02 11.58-7.24 15.905-11.883 4.32-4.638 8.238-10.853 12.711-21.013l.77-1.75h91.288zm-44.371 5.86h-43.105c-4.318 9.512-8.351 15.9-13.004 20.896-4.543 4.878-9.558 8.294-15.621 11.976 2.738 32.74 9.86 55.741 21.824 75.012 11.584 18.659 27.832 34.032 49.578 51.419 21.747-17.387 38-32.76 49.589-51.419 11.97-19.272 19.096-42.272 21.835-75.012-6.063-3.682-11.078-7.099-15.621-11.976-4.653-4.995-8.686-11.384-13.004-20.895h-42.471zm36.932 27.655c2.361-2.006 5.153-1.537 6.801.002.859.802 1.368 1.862 1.374 3 .006 1.121-.477 2.512-1.969 3.975l-.02.02a7.593 7.593 0 00-2.253-.366 1.547 1.547 0 00-.52.077 2.804 2.804 0 102.881 4.022c.217.325.333.737.33 1.216-.008 1.373-.923 2.532-1.849 2.722l.026.128a9.732 9.732 0 00-2.957-2.02c-1.931-.84-4.13-1-6.15-.184-2.04.825-3.711 2.568-4.705 5.176l-.032.085-.022.088c-.849 3.361.165 5.86 2.009 7.42 1.054.891 2.322 1.43 3.527 1.69a2.493 2.493 0 10-.757-3.558 4.33 4.33 0 01-.758-.511c-.871-.736-1.557-1.969-1.022-4.19.736-1.877 1.831-2.868 2.927-3.31 1.134-.459 2.458-.407 3.739.15 2.545 1.109 4.753 4.167 4.133 8.395-1.09 4.255-4.234 6.549-7.638 6.536-3.444-.013-7.695-2.408-10.703-8.729-.05-.104-.109-.2-.177-.287l.316-.319a1.975 1.975 0 00-2.809-2.777l-.494.5c-5.601-3.48-7.487-7.748-7.214-11.072.279-3.393 2.834-6.329 7.167-7.05 4.265-.254 7.123 2.207 8.009 4.838.446 1.324.384 2.648-.17 3.738-.535 1.054-1.616 2.06-3.549 2.633-2.259.343-3.428-.447-4.087-1.378a4.285 4.285 0 01-.444-.8 2.492 2.492 0 10-3.48-1.054c.157 1.222.584 2.53 1.382 3.655 1.396 1.97 3.798 3.195 7.219 2.638l.09-.015.088-.025c2.683-.767 4.564-2.282 5.559-4.244.986-1.942 1.016-4.147.344-6.142a9.733 9.733 0 00-1.755-3.116l.12.035c.269-.906 1.502-1.718 2.871-1.609.477.038.877.19 1.182.433a2.804 2.804 0 103.76 3.216 1.55 1.55 0 00.123-.512c.076-1.172-.076-2.222-.443-3.12zm-18.563 21.504c-6.184-3.9-8.92-9.104-8.528-13.88.411-4.995 4.217-8.98 9.851-9.882l.071-.011.071-.005c2.809-.187 5.25.525 7.165 1.773 1.185-1.88 3.548-2.782 5.558-2.621a5.385 5.385 0 012.363.743c3.652-3.104 8.23-2.426 10.939.104 1.41 1.316 2.352 3.167 2.363 5.261.01 1.975-.807 3.994-2.531 5.835.7.95.988 2.072.981 3.144-.013 2.018-1.115 4.296-3.091 5.315 1.079 2.015 1.58 4.508 1.152 7.29l-.01.071-.018.07c-1.381 5.536-5.678 8.986-10.69 8.967-4.894-.019-9.953-3.327-13.31-10.105l-2.112 2.128 2.013 1.886a1.558 1.558 0 01-2.046 2.347 1.558 1.558 0 01-2.612.735l-1.15-1.144-12.458 12.552 20.173 20.326 1.133-1.178-1.844-1.845 1.963-1.962 5.085-5.284a1.11 1.11 0 011.599 1.538l-.949.986a2.046 2.046 0 011.358 3.46l-.451.47 2.089 2.091.398-.413a2.046 2.046 0 013.32.536l.604-.628a1.109 1.109 0 011.599 1.538l-2.398 2.492.011.011-4.701 4.698-1.963-1.965-1.153 1.198 5.062 5.101.97-1.009a1.364 1.364 0 111.967 1.892l-1.015 1.054 2.442 2.46a1.558 1.558 0 01-2.211 2.195l-2.391-2.41-1.11 1.153a1.365 1.365 0 11-1.966-1.891l1.153-1.199-8.199-8.261-2.621-2.522.058-.06-20.207-20.36-20.207 20.36.058.06-2.621 2.522-8.2 8.262 1.152 1.198a1.364 1.364 0 11-1.966 1.891l-1.108-1.152-2.391 2.409a1.558 1.558 0 01-2.211-2.195l2.441-2.459-1.015-1.055a1.364 1.364 0 111.966-1.892l.971 1.01 5.063-5.102-1.153-1.198-1.965 1.966-4.701-4.698.012-.011-2.399-2.493a1.109 1.109 0 011.599-1.538l.605.629a2.047 2.047 0 013.321-.536l.397.413 2.091-2.093-.451-.468a2.045 2.045 0 011.356-3.46l-.949-.987a1.109 1.109 0 111.599-1.539l5.12 5.323 1.927 1.925-1.843 1.844 1.134 1.178 20.173-20.326-12.458-12.553-1.151 1.145a1.558 1.558 0 01-2.612-.734 1.557 1.557 0 01-2.045-2.348l2.013-1.886-2.112-2.128c-3.357 6.778-8.415 10.087-13.31 10.105-5.011.02-9.309-3.43-10.69-8.967l-.017-.07-.011-.07c-.427-2.782.073-5.275 1.152-7.29-1.977-1.02-3.079-3.297-3.092-5.316-.007-1.072.281-2.195.98-3.145-1.723-1.84-2.54-3.86-2.53-5.834.011-2.094.953-3.945 2.363-5.261 2.709-2.53 7.287-3.208 10.939-.104a5.384 5.384 0 012.362-.743c2.011-.16 4.374.741 5.559 2.622 1.916-1.249 4.357-1.961 7.167-1.774l.071.005.071.011c5.634.902 9.44 4.887 9.851 9.882.392 4.777-2.344 9.98-8.528 13.88l2.049 2.066 1.835-1.72a1.558 1.558 0 012.191 2.213 1.557 1.557 0 01.451 2.522l-.747.743 12.444 12.538 12.443-12.538-.747-.743a1.557 1.557 0 01.452-2.522 1.558 1.558 0 012.191-2.213l1.835 1.72 2.05-2.066zm-55.012-21.504c-2.362-2.006-5.153-1.537-6.8.002-.859.802-1.369 1.862-1.374 3-.006 1.121.477 2.512 1.968 3.975l.02.02a7.598 7.598 0 012.252-.366 1.54 1.54 0 01.519.077 2.804 2.804 0 11-2.878 4.02c-.218.325-.335.738-.332 1.218.009 1.373.923 2.532 1.849 2.722l-.026.13a9.728 9.728 0 012.96-2.021c1.931-.841 4.13-1 6.149-.184 2.04.824 3.711 2.567 4.705 5.175l.033.085.022.088c.848 3.361-.166 5.86-2.009 7.42-1.055.892-2.324 1.43-3.53 1.69a2.492 2.492 0 11.758-3.558c.27-.144.527-.314.76-.511.87-.736 1.557-1.969 1.022-4.19-.736-1.877-1.831-2.868-2.928-3.31-1.133-.459-2.458-.407-3.739.15-2.545 1.109-4.752 4.167-4.132 8.395 1.089 4.255 4.233 6.549 7.637 6.536 3.445-.013 7.696-2.408 10.704-8.729a1.57 1.57 0 01.175-.285l-.317-.32a1.975 1.975 0 112.81-2.778l.495.5c5.601-3.48 7.488-7.748 7.215-11.072-.279-3.392-2.834-6.328-7.167-7.049-4.265-.255-7.123 2.206-8.009 4.837-.446 1.324-.384 2.648.17 3.738.535 1.054 1.616 2.06 3.549 2.633 2.259.343 3.428-.447 4.087-1.377.176-.25.324-.52.444-.8a2.492 2.492 0 113.48-1.06c-.156 1.223-.583 2.533-1.382 3.66-1.396 1.971-3.798 3.195-7.219 2.638l-.09-.015-.088-.025c-2.683-.766-4.564-2.282-5.559-4.244-.986-1.942-1.016-4.147-.344-6.142a9.721 9.721 0 011.756-3.117l-.124.036c-.268-.906-1.502-1.718-2.87-1.609-.477.038-.876.19-1.181.432a2.803 2.803 0 11-3.759 3.224 1.542 1.542 0 01-.125-.52c-.077-1.171.075-2.221.443-3.12zm36.195 62.531h-4.805v4.805h4.805v-4.805zm6.14 0h-4.805v4.805h4.805v-4.805zm-4.805 6.14h4.805v4.805h-4.805v-4.805zm-1.335 0h-4.805v4.805h4.805v-4.805zM36.805 219.295c2.902 0 5.936.264 9.102.792 3.166.462 5.64 1.088 7.42 1.88.594.198.956.461 1.088.791.198.264.363.759.495 1.484l1.187 13.752c0 .198-.165.33-.494.396-.33.066-.528-.033-.594-.297-2.242-5.21-5.244-9.234-9.003-12.07-3.76-2.836-8.113-4.254-13.06-4.254-6.53 0-11.576 2.407-15.137 7.222-3.562 4.815-5.343 11.279-5.343 19.392 0 6.068.956 11.609 2.87 16.621 1.978 5.013 4.715 9.004 8.211 11.972 3.562 2.902 7.585 4.353 12.07 4.353 4.222 0 7.981-1.385 11.28-4.155 3.363-2.837 6.364-7.124 9.003-12.862.065-.264.263-.363.593-.297.396.066.594.198.594.396l-1.484 13.455c-.132.792-.297 1.319-.495 1.583-.132.198-.495.429-1.088.693-5.87 2.176-11.906 3.265-18.106 3.265-8.047 0-14.774-1.583-20.183-4.749-5.409-3.232-9.4-7.289-11.971-12.17C1.253 261.542 0 256.397 0 251.054c0-6.266 1.682-11.806 5.046-16.621 3.43-4.815 7.948-8.542 13.554-11.18 5.672-2.639 11.74-3.958 18.205-3.958zm51.442 3.364c-7.85 0-13.489 5.112-16.919 15.335-.066.198-.264.297-.593.297-.33-.066-.495-.198-.495-.395.264-2.639.56-6.036.89-10.191.33-4.221.495-7.387.495-9.498 0-.33.165-.495.495-.495.395 0 .593.165.593.495 0 1.451 1.88 2.177 5.64 2.177 5.672.198 12.301.296 19.886.296 3.892 0 8.014-.066 12.367-.197l6.728-.099c2.507 0 4.32-.165 5.442-.495 1.187-.33 1.945-.989 2.275-1.979.066-.264.264-.396.594-.396.396 0 .593.132.593.396-.197 1.979-.428 5.145-.692 9.498-.198 4.353-.297 7.849-.297 10.488 0 .197-.165.296-.495.296-.329 0-.527-.099-.593-.296-.99-5.079-2.836-8.872-5.541-11.378-2.704-2.573-6.035-3.859-9.992-3.859-1.913 0-3.199.429-3.859 1.286-.594.792-.89 2.342-.89 4.65v45.611c0 2.044.198 3.528.593 4.452.396.923 1.155 1.55 2.276 1.88 1.121.329 2.902.494 5.342.494.198 0 .297.198.297.594 0 .396-.099.593-.297.593-2.374 0-4.254-.033-5.639-.098l-8.212-.099-8.014.099c-1.385.065-3.298.098-5.738.098-.198 0-.297-.197-.297-.593 0-.396.1-.594.297-.594 2.374 0 4.122-.165 5.244-.494 1.187-.33 1.978-.957 2.374-1.88.462-.99.693-2.474.693-4.452v-45.808c0-2.243-.297-3.76-.89-4.552-.594-.791-1.815-1.187-3.661-1.187zm110.539 58.373c.33 0 .495.198.495.594 0 .396-.165.593-.495.593-1.319 0-3.364-.065-6.134-.197-2.902-.132-4.98-.198-6.233-.198-1.649 0-3.661.066-6.036.198-2.242.132-4.023.197-5.342.197-.264 0-.396-.197-.396-.593 0-.396.132-.594.396-.594 1.715 0 2.935-.165 3.661-.494.791-.396 1.187-1.056 1.187-1.979 0-1.121-.66-3.001-1.979-5.64l-10.289-20.282H150.01l-7.025 15.533c-.857 1.913-1.286 3.694-1.286 5.343 0 2.374.824 4.221 2.473 5.54 1.715 1.32 3.991 1.979 6.827 1.979.33 0 .495.198.495.594 0 .396-.165.593-.495.593-1.187 0-2.902-.065-5.145-.197a126.348 126.348 0 00-6.53-.198c-1.78 0-3.924.066-6.43.198-2.243.132-4.057.197-5.442.197-.264 0-.396-.197-.396-.593 0-.396.132-.594.396-.594 1.847 0 3.397-.363 4.65-1.088 1.253-.792 2.506-2.144 3.76-4.057 1.253-1.978 2.737-4.88 4.452-8.706l21.469-47.193c.132-.198.429-.297.891-.297.527 0 .824.099.89.297l24.734 48.677c2.309 4.683 4.222 7.915 5.739 9.696 1.517 1.781 3.1 2.671 4.749 2.671zm-47.49-31.165h14.939l-7.915-15.632-7.024 15.632zm73.69 23.943c0 2.11.231 3.66.693 4.65.462.923 1.319 1.583 2.572 1.979 1.32.395 3.397.593 6.233.593.198 0 .297.198.297.594 0 .396-.099.593-.297.593-2.704 0-4.815-.033-6.332-.098l-8.607-.099-7.223.099c-1.319.065-3.1.098-5.342.098-.198 0-.297-.197-.297-.593 0-.396.099-.594.297-.594 2.11 0 3.628-.165 4.551-.494.989-.33 1.649-.957 1.979-1.88.329-.99.494-2.474.494-4.452v-45.808c0-1.979-.165-3.43-.494-4.354-.33-.923-.99-1.55-1.979-1.879-.989-.396-2.506-.594-4.551-.594-.198 0-.297-.198-.297-.594 0-.395.099-.593.297-.593l5.243.099c3.035.131 5.442.197 7.223.197 1.583 0 3.463-.098 5.639-.296a126.39 126.39 0 013.265-.198 92.216 92.216 0 014.551-.099c6.728 0 12.038 1.418 15.929 4.254 3.892 2.77 5.838 7.091 5.838 12.961 0 4.089-1.056 7.552-3.166 10.388-2.111 2.837-4.848 4.98-8.212 6.431-3.298 1.451-6.695 2.177-10.191 2.177-1.781 0-3.331-.165-4.65-.495-.132 0-.198-.165-.198-.494 0-.198.033-.396.099-.594.132-.198.264-.264.396-.198.989.264 2.111.396 3.364.396 3.034 0 5.54-1.418 7.519-4.255 2.045-2.836 3.067-6.859 3.067-12.07s-1.121-9.234-3.364-12.07c-2.176-2.836-5.375-4.255-9.597-4.255-1.846 0-3.1.429-3.759 1.287-.66.857-.99 2.539-.99 5.045v45.215zm70.418-26.515c6.991 0 12.334 1.385 16.027 4.155 3.694 2.704 5.541 6.728 5.541 12.07 0 3.826-.957 7.19-2.869 10.092-1.913 2.836-4.584 5.046-8.014 6.629-3.364 1.583-7.19 2.374-11.477 2.374-1.715 0-3.727-.099-6.035-.297-.858 0-2.243-.033-4.156-.099a74.914 74.914 0 00-5.045-.197l-6.332.099c-1.385.065-3.298.098-5.739.098-.198 0-.297-.197-.297-.593 0-.396.099-.594.297-.594 2.243-.132 3.793-.297 4.65-.494.924-.264 1.55-.825 1.88-1.682.396-.924.594-2.474.594-4.65v-45.808c0-2.177-.165-3.694-.495-4.552-.33-.857-.956-1.418-1.88-1.681-.857-.264-2.407-.462-4.65-.594-.132 0-.198-.198-.198-.594 0-.395.066-.593.198-.593l4.947.099c2.77.131 5.277.197 7.519.197 2.177 0 4.914-.066 8.212-.197l5.64-.099c.131 0 .197.198.197.593 0 .396-.066.594-.197.594-2.573.132-4.354.33-5.343.594-.989.263-1.715.857-2.177 1.78-.461.924-.692 2.474-.692 4.65v19.491c3.693-.528 6.991-.791 9.894-.791zm-2.573 32.847c4.551 0 7.783-1.187 9.696-3.562 1.913-2.44 2.869-6.233 2.869-11.378 0-5.276-1.022-9.102-3.067-11.476-1.979-2.441-5.408-3.661-10.289-3.661-1.715 0-3.892.165-6.53.495v23.646c0 1.978.461 3.462 1.385 4.452.989.989 2.968 1.484 5.936 1.484zm46.699-5.936c0 2.044.164 3.528.494 4.452.33.923.957 1.55 1.88 1.88.989.329 2.539.494 4.65.494.198 0 .297.198.297.594 0 .396-.099.593-.297.593-2.177 0-3.891-.033-5.145-.098l-7.519-.099-7.321.099c-1.319.065-3.1.098-5.343.098-.132 0-.198-.197-.198-.593 0-.396.066-.594.198-.594 2.111 0 3.661-.165 4.65-.494.99-.33 1.649-.957 1.979-1.88.396-.99.594-2.474.594-4.452v-45.808c0-1.979-.198-3.43-.594-4.354-.33-.923-.989-1.55-1.979-1.879-.989-.396-2.539-.594-4.65-.594-.132 0-.198-.198-.198-.594 0-.395.066-.593.198-.593l5.343.099c3.034.131 5.474.197 7.321.197 2.045 0 4.584-.066 7.618-.197l5.046-.099c.198 0 .297.198.297.593 0 .396-.099.594-.297.594-2.045 0-3.562.198-4.551.594-.989.395-1.649 1.088-1.979 2.077-.33.924-.494 2.375-.494 4.353v45.611zm19.566 8.013c-.198 0-.297-.197-.297-.593 0-.396.099-.594.297-.594 2.308 0 3.99-.165 5.046-.494 1.055-.33 1.748-.957 2.077-1.88.396-.99.594-2.474.594-4.452v-45.808c0-1.979-.165-3.43-.495-4.354-.329-.923-.989-1.55-1.978-1.879-.99-.396-2.507-.594-4.552-.594-.197 0-.296-.198-.296-.594 0-.395.099-.593.296-.593h43.137c.66 0 .989.296.989.89l.198 16.622c0 .197-.198.329-.593.395-.33 0-.528-.099-.594-.297-1.121-5.078-3.034-8.805-5.738-11.179-2.705-2.375-6.266-3.562-10.685-3.562h-2.969c-1.978 0-3.429.429-4.353 1.286-.923.857-1.385 2.177-1.385 3.957v45.314c0 2.044.264 3.562.792 4.551.527.989 1.517 1.682 2.968 2.078 1.451.395 3.726.593 6.826.593.132 0 .198.198.198.594 0 .396-.066.593-.198.593-2.704 0-4.815-.033-6.332-.098l-10.091-.099-7.421.099c-1.319.065-3.133.098-5.441.098zm124.895-1.187c.198 0 .297.198.297.594 0 .396-.099.593-.297.593-2.308 0-4.155-.033-5.54-.098l-7.619-.099-8.904.099c-1.187.065-2.803.098-4.848.098-.198 0-.297-.197-.297-.593 0-.396.099-.594.297-.594 2.441 0 4.221-.165 5.343-.494 1.121-.33 1.88-.957 2.275-1.88.396-.924.594-2.408.594-4.452v-37.498l-30.77 32.946v4.552c0 1.978.198 3.462.594 4.452.396.923 1.154 1.55 2.276 1.88 1.121.329 2.902.494 5.342.494.132 0 .198.198.198.594 0 .396-.066.593-.198.593-2.308 0-4.155-.033-5.54-.098l-8.608-.099-7.42.099c-1.319.065-3.133.098-5.442.098-.132 0-.198-.197-.198-.593 0-.396.066-.594.198-.594 2.309 0 3.991-.165 5.046-.494 1.056-.33 1.781-.957 2.177-1.88.396-.99.593-2.474.593-4.452v-45.808c0-1.979-.197-3.43-.593-4.354-.396-.923-1.121-1.55-2.177-1.879-.989-.396-2.605-.594-4.848-.594-.198 0-.297-.198-.297-.594 0-.395.099-.593.297-.593l5.343.099c3.034.131 5.474.197 7.321.197 2.507 0 5.409-.066 8.707-.197l5.441-.099c.132 0 .198.198.198.593 0 .396-.066.594-.198.594-2.374 0-4.122.198-5.243.594-1.122.395-1.913 1.088-2.375 2.077-.396.924-.594 2.375-.594 4.353v37.003l30.77-32.847v-4.156c0-1.978-.198-3.429-.594-4.353-.395-.989-1.154-1.682-2.275-2.077-1.122-.396-2.902-.594-5.343-.594-.198 0-.297-.198-.297-.594 0-.395.099-.593.297-.593l4.848.099c3.298.131 6.266.197 8.904.197 1.781 0 4.321-.066 7.619-.197l5.54-.099c.198 0 .297.198.297.593 0 .396-.099.594-.297.594-2.242 0-3.891.198-4.947.594-1.055.329-1.781.956-2.176 1.879-.396.924-.594 2.375-.594 4.354v45.808c0 1.978.198 3.462.594 4.452.395.923 1.121 1.55 2.176 1.88 1.056.329 2.705.494 4.947.494zm80.53 0c.198 0 .297.198.297.594 0 .396-.099.593-.297.593-2.308 0-4.155-.033-5.54-.098l-7.618-.099-8.905.099c-1.187.065-2.803.098-4.847.098-.198 0-.297-.197-.297-.593 0-.396.099-.594.297-.594 2.44 0 4.221-.165 5.342-.494 1.121-.33 1.88-.957 2.276-1.88.395-.924.593-2.408.593-4.452V251.45h-31.956v22.756c0 1.978.197 3.462.593 4.452.396.923 1.154 1.55 2.276 1.88 1.121.329 2.902.494 5.342.494.132 0 .198.198.198.594 0 .396-.066.593-.198.593-2.308 0-4.155-.033-5.54-.098l-8.608-.099-7.42.099c-1.319.065-3.133.098-5.442.098-.131 0-.197-.197-.197-.593 0-.396.066-.594.197-.594 2.309 0 3.991-.165 5.046-.494 1.056-.33 1.781-.957 2.177-1.88.396-.99.594-2.474.594-4.452v-45.808c0-1.979-.198-3.43-.594-4.354-.396-.923-1.121-1.55-2.177-1.879-.989-.396-2.605-.594-4.848-.594-.198 0-.296-.198-.296-.594 0-.395.098-.593.296-.593l5.343.099c3.034.131 5.474.197 7.321.197 2.507 0 5.409-.066 8.707-.197l5.441-.099c.132 0 .198.198.198.593 0 .396-.066.594-.198.594-2.374 0-4.122.198-5.243.594-1.122.395-1.913 1.088-2.375 2.077-.396.924-.593 2.375-.593 4.353v20.085h31.956v-20.085c0-1.978-.198-3.429-.593-4.353-.396-.989-1.155-1.682-2.276-2.077-1.121-.396-2.902-.594-5.342-.594-.198 0-.297-.198-.297-.594 0-.395.099-.593.297-.593l4.847.099c3.298.131 6.266.197 8.905.197 1.781 0 4.32-.066 7.618-.197l5.54-.099c.198 0 .297.198.297.593 0 .396-.099.594-.297.594-2.242 0-3.924.198-5.045.594-1.056.329-1.781.956-2.177 1.879-.33.924-.495 2.375-.495 4.354v45.808c0 1.978.165 3.462.495 4.452.396.923 1.121 1.55 2.177 1.88 1.055.329 2.737.494 5.045.494zm-437.21 68.593c0-.228-.057-.342-.171-.342-1.292 0-2.242-.095-2.85-.285-.608-.19-1.026-.551-1.254-1.083-.228-.57-.342-1.425-.342-2.565v-26.389c0-1.14.114-1.976.342-2.508.228-.532.646-.893 1.254-1.083.608-.228 1.558-.342 2.85-.342.114 0 .171-.114.171-.342 0-.228-.057-.342-.171-.342l-3.192.057c-1.9.076-3.363.114-4.389.114-1.52 0-3.23-.038-5.13-.114l-2.792-.057c-.114 0-.171.114-.171.342 0 .228.057.342.171.342 1.405 0 2.431.114 3.077.342.646.228 1.083.627 1.311 1.197.228.532.342 1.368.342 2.508v2.394l-17.726 18.923v-21.317c0-1.14.114-1.976.342-2.508.266-.57.722-.969 1.368-1.197.646-.228 1.653-.342 3.021-.342.076 0 .114-.114.114-.342 0-.228-.038-.342-.114-.342l-3.135.057c-1.9.076-3.572.114-5.015.114-1.064 0-2.47-.038-4.218-.114l-3.078-.057c-.114 0-.17.114-.17.342 0 .228.056.342.17.342 1.292 0 2.223.114 2.793.342.608.19 1.026.551 1.254 1.083.228.532.342 1.368.342 2.508v26.389c0 1.14-.114 1.995-.342 2.565-.228.532-.646.893-1.254 1.083-.608.19-1.577.285-2.907.285-.076 0-.114.114-.114.342 0 .228.038.342.114.342 1.33 0 2.375-.019 3.135-.057l4.275-.057 4.958.057a70.43 70.43 0 003.192.057c.076 0 .114-.114.114-.342 0-.228-.038-.342-.114-.342-1.406 0-2.432-.095-3.078-.285-.646-.19-1.083-.551-1.31-1.083-.229-.57-.343-1.425-.343-2.565v-2.621l17.726-18.98v21.601c0 1.178-.114 2.033-.342 2.565-.228.532-.665.893-1.311 1.083-.646.19-1.672.285-3.077.285-.114 0-.171.114-.171.342 0 .228.057.342.171.342 1.177 0 2.108-.019 2.792-.057l5.13-.057 4.389.057a70.43 70.43 0 003.192.057c.114 0 .171-.114.171-.342zm61.859 0c0-.228-.057-.342-.171-.342-1.291 0-2.241-.095-2.849-.285-.608-.19-1.026-.551-1.254-1.083-.228-.57-.342-1.425-.342-2.565v-25.705c0-1.71.285-2.907.855-3.591.608-.684 1.805-1.026 3.59-1.026.114 0 .171-.114.171-.342 0-.228-.057-.342-.171-.342h-1.88c-6.612.114-12.445.171-17.498.171-5.586 0-10.925-.038-16.016-.114-1.216-.038-2.47-.057-3.762-.057-.114 0-.171.114-.171.342 0 .228.057.342.171.342 1.786 0 2.964.342 3.534 1.026.57.684.855 1.881.855 3.591v25.705c0 1.14-.114 1.995-.342 2.565-.228.532-.646.893-1.254 1.083-.608.19-1.577.285-2.907.285-.076 0-.114.114-.114.342 0 .228.038.342.114.342 1.292 0 2.318-.019 3.078-.057l4.217-.057 4.731.057a70.43 70.43 0 003.192.057c.114 0 .171-.114.171-.342 0-.228-.057-.342-.171-.342-1.33 0-2.299-.095-2.907-.285-.57-.19-.969-.551-1.197-1.083-.19-.532-.285-1.387-.285-2.565v-25.705c0-1.292.038-2.147.114-2.565.114-.418.361-.684.741-.798.38-.114 1.14-.171 2.28-.171h11.684c1.026 0 1.71.057 2.052.171.342.114.551.38.627.798.114.418.171 1.273.171 2.565v25.705c0 1.14-.114 1.995-.342 2.565-.19.532-.589.893-1.197 1.083-.608.19-1.558.285-2.85.285-.114 0-.171.114-.171.342 0 .228.057.342.171.342 1.33 0 2.394-.019 3.192-.057l4.731-.057 4.161.057c.76.038 1.786.057 3.077.057.114 0 .171-.114.171-.342zm45.653 0c0-.228-.095-.342-.285-.342-.95 0-1.862-.513-2.736-1.539-.873-1.026-1.975-2.887-3.305-5.585l-14.249-28.043c-.038-.114-.209-.171-.513-.171-.266 0-.437.057-.513.171l-12.369 27.188c-.988 2.204-1.842 3.876-2.564 5.015-.722 1.102-1.444 1.881-2.166 2.337-.722.418-1.615.627-2.679.627-.152 0-.228.114-.228.342 0 .228.076.342.228.342.798 0 1.843-.038 3.135-.114a72.058 72.058 0 013.704-.114c1.064 0 2.318.038 3.762.114 1.292.076 2.28.114 2.964.114.19 0 .285-.114.285-.342 0-.228-.095-.342-.285-.342-1.634 0-2.945-.38-3.933-1.14-.95-.76-1.425-1.824-1.425-3.191 0-.95.247-1.976.741-3.078l4.047-8.949h10.145l5.928 11.685c.76 1.519 1.14 2.602 1.14 3.248 0 .532-.228.912-.684 1.14-.418.19-1.121.285-2.109.285-.152 0-.228.114-.228.342 0 .228.076.342.228.342.76 0 1.786-.038 3.078-.114a64.274 64.274 0 013.477-.114c.722 0 1.919.038 3.591.114 1.595.076 2.773.114 3.533.114.19 0 .285-.114.285-.342zm-19.037-18.296h-8.606l4.047-9.005 4.559 9.005zm34.245 16.472c-.266-.57-.399-1.463-.399-2.679v-26.047c0-1.444.19-2.413.57-2.907.38-.494 1.102-.741 2.166-.741 2.432 0 4.275.817 5.529 2.451 1.292 1.634 1.938 3.952 1.938 6.954s-.589 5.319-1.767 6.953c-1.14 1.634-2.584 2.451-4.332 2.451-.722 0-1.368-.076-1.938-.228-.076-.038-.152 0-.228.114a1.076 1.076 0 00-.057.342c0 .19.038.285.114.285.76.19 1.653.285 2.679.285 2.014 0 3.971-.418 5.87-1.254 1.938-.836 3.515-2.071 4.731-3.705 1.216-1.633 1.824-3.628 1.824-5.984 0-3.382-1.121-5.871-3.363-7.467-2.242-1.634-5.3-2.451-9.176-2.451-.988 0-1.862.019-2.622.057-.76.038-1.387.076-1.881.114a36.587 36.587 0 01-3.249.171c-1.026 0-2.413-.038-4.16-.114l-3.021-.057c-.114 0-.171.114-.171.342 0 .228.057.342.171.342 1.178 0 2.052.114 2.622.342.57.19.95.551 1.14 1.083.19.532.285 1.368.285 2.508v26.389c0 1.14-.095 1.995-.285 2.565-.19.532-.57.893-1.14 1.083-.532.19-1.406.285-2.622.285-.114 0-.171.114-.171.342 0 .228.057.342.171.342 1.292 0 2.318-.019 3.078-.057l4.16-.057 4.959.057c.874.038 2.09.057 3.648.057.114 0 .171-.114.171-.342 0-.228-.057-.342-.171-.342-1.634 0-2.831-.114-3.591-.342-.722-.228-1.216-.608-1.482-1.14zm24.55-23.311c1.976-5.89 5.225-8.835 9.747-8.835 1.064 0 1.767.228 2.109.684.342.456.513 1.33.513 2.622v26.389c0 1.14-.133 1.995-.399 2.565-.228.532-.684.893-1.368 1.083-.646.19-1.653.285-3.021.285-.114 0-.171.114-.171.342 0 .228.057.342.171.342 1.406 0 2.508-.019 3.306-.057l4.617-.057 4.73.057c.798.038 1.881.057 3.249.057.114 0 .171-.114.171-.342 0-.228-.057-.342-.171-.342-1.406 0-2.432-.095-3.078-.285-.646-.19-1.083-.551-1.311-1.083-.228-.532-.342-1.387-.342-2.565v-26.275c0-1.33.171-2.223.513-2.679.38-.494 1.121-.741 2.223-.741 2.28 0 4.199.741 5.757 2.223 1.558 1.444 2.622 3.629 3.192 6.555.038.114.152.171.342.171.19 0 .285-.057.285-.171 0-1.52.057-3.534.171-6.042.151-2.508.284-4.332.398-5.472 0-.152-.114-.228-.342-.228-.189 0-.303.076-.341.228-.19.57-.627.95-1.311 1.14-.646.19-1.691.285-3.135.285l-3.876.057a235.77 235.77 0 01-7.124.114c-4.37 0-8.189-.057-11.457-.171-2.166 0-3.249-.418-3.249-1.254 0-.19-.114-.285-.342-.285-.19 0-.285.095-.285.285 0 1.216-.095 3.04-.285 5.472-.19 2.394-.361 4.351-.513 5.871 0 .114.095.19.285.228.19 0 .304-.057.342-.171zm78.461 25.135c0-.228-.057-.342-.171-.342-1.33 0-2.299-.095-2.907-.285-.608-.19-1.026-.551-1.254-1.083-.19-.57-.285-1.425-.285-2.565v-26.389c0-1.14.095-1.976.285-2.508.228-.532.646-.893 1.254-1.083.646-.228 1.615-.342 2.907-.342.114 0 .171-.114.171-.342 0-.228-.057-.342-.171-.342l-3.192.057c-1.9.076-3.363.114-4.389.114-1.52 0-3.23-.038-5.13-.114l-2.792-.057c-.114 0-.171.114-.171.342 0 .228.057.342.171.342 1.405 0 2.431.114 3.077.342.646.228 1.083.627 1.311 1.197.228.532.342 1.368.342 2.508v11.57h-18.41v-11.57c0-1.14.114-1.976.342-2.508.266-.57.722-.969 1.368-1.197.646-.228 1.653-.342 3.021-.342.076 0 .114-.114.114-.342 0-.228-.038-.342-.114-.342l-3.135.057c-1.9.076-3.572.114-5.015.114-1.064 0-2.47-.038-4.218-.114l-3.078-.057c-.114 0-.171.114-.171.342 0 .228.057.342.171.342 1.292 0 2.223.114 2.793.342.608.19 1.026.551 1.254 1.083.228.532.342 1.368.342 2.508v26.389c0 1.14-.114 1.995-.342 2.565-.228.532-.646.893-1.254 1.083-.608.19-1.577.285-2.907.285-.076 0-.114.114-.114.342 0 .228.038.342.114.342 1.33 0 2.375-.019 3.135-.057l4.275-.057 4.958.057a70.43 70.43 0 003.192.057c.076 0 .114-.114.114-.342 0-.228-.038-.342-.114-.342-1.406 0-2.432-.095-3.078-.285-.646-.19-1.083-.551-1.311-1.083-.228-.57-.342-1.425-.342-2.565v-13.109h18.41v13.109c0 1.178-.114 2.033-.342 2.565-.228.532-.665.893-1.311 1.083-.646.19-1.672.285-3.077.285-.114 0-.171.114-.171.342 0 .228.057.342.171.342 1.177 0 2.108-.019 2.792-.057l5.13-.057 4.389.057a70.43 70.43 0 003.192.057c.114 0 .171-.114.171-.342zm32.982-8.834c-.152 0-.228.038-.228.114-.836 2.546-2.147 4.426-3.933 5.642-1.786 1.216-4.161 1.824-7.125 1.824h-1.88c-.912 0-1.577-.266-1.995-.798-.418-.532-.627-1.349-.627-2.451v-12.881h4.673c2.242 0 3.952.456 5.13 1.368 1.216.874 1.824 2.09 1.824 3.648 0 .076.114.114.342.114.228 0 .342-.038.342-.114 0-.76-.038-1.786-.114-3.078l-.057-2.736.057-5.129c0-.114-.114-.171-.342-.171-.19 0-.285.057-.285.171 0 1.368-.589 2.432-1.767 3.191-1.178.76-2.869 1.14-5.073 1.14h-4.73v-11.627c0-1.026.266-1.786.798-2.28.532-.494 1.368-.741 2.508-.741h1.709c2.356 0 4.256.532 5.7 1.596s2.47 2.698 3.078 4.902c.038.114.152.152.342.114.228-.038.342-.095.342-.171l-.114-7.581c0-.342-.19-.513-.57-.513h-24.167c-.114 0-.171.114-.171.342 0 .228.057.342.171.342 1.178 0 2.052.114 2.622.342.57.19.95.551 1.14 1.083.19.532.285 1.368.285 2.508v26.389c0 1.14-.095 1.995-.285 2.565-.19.532-.57.893-1.14 1.083-.532.19-1.406.285-2.622.285-.114 0-.171.114-.171.342 0 .228.057.342.171.342h25.193c.342 0 .57-.057.684-.171.114-.152.171-.38.171-.684 0-2.432.19-5.129.57-8.093 0-.038-.057-.076-.171-.114a.387.387 0 00-.285-.114zm-18.752-31.69c.57.532 1.349.798 2.337.798.95 0 1.672-.266 2.166-.798.532-.57.798-1.349.798-2.337 0-.912-.266-1.634-.798-2.166-.494-.532-1.216-.798-2.166-.798s-1.71.266-2.28.798c-.57.532-.855 1.254-.855 2.166 0 .988.266 1.767.798 2.337zm9.974 0c.532.532 1.292.798 2.28.798.95 0 1.672-.266 2.166-.798.532-.57.798-1.349.798-2.337 0-.912-.266-1.615-.798-2.109-.494-.532-1.216-.798-2.166-.798s-1.71.266-2.28.798c-.532.494-.798 1.197-.798 2.109 0 .988.266 1.767.798 2.337zm27.288 38.7c-.266-.57-.399-1.463-.399-2.679v-26.047c0-1.444.19-2.413.57-2.907.38-.494 1.102-.741 2.166-.741 2.432 0 4.274.817 5.528 2.451 1.292 1.634 1.938 3.952 1.938 6.954s-.589 5.319-1.767 6.953c-1.14 1.634-2.583 2.451-4.331 2.451-.722 0-1.368-.076-1.938-.228-.076-.038-.152 0-.228.114a1.076 1.076 0 00-.057.342c0 .19.038.285.114.285.76.19 1.653.285 2.679.285 2.013 0 3.97-.418 5.87-1.254 1.938-.836 3.515-2.071 4.731-3.705 1.216-1.633 1.824-3.628 1.824-5.984 0-3.382-1.121-5.871-3.363-7.467-2.242-1.634-5.301-2.451-9.176-2.451-.988 0-1.862.019-2.622.057-.76.038-1.387.076-1.881.114a36.587 36.587 0 01-3.249.171c-1.026 0-2.413-.038-4.161-.114l-3.02-.057c-.114 0-.171.114-.171.342 0 .228.057.342.171.342 1.177 0 2.051.114 2.621.342.57.19.95.551 1.14 1.083.19.532.285 1.368.285 2.508v26.389c0 1.14-.095 1.995-.285 2.565-.19.532-.57.893-1.14 1.083-.532.19-1.406.285-2.621.285-.114 0-.171.114-.171.342 0 .228.057.342.171.342 1.291 0 2.317-.019 3.077-.057l4.161-.057 4.959.057c.874.038 2.09.057 3.648.057.114 0 .171-.114.171-.342 0-.228-.057-.342-.171-.342-1.634 0-2.831-.114-3.591-.342-.722-.228-1.216-.608-1.482-1.14zm49.401-15.56c-2.128-1.596-5.206-2.394-9.234-2.394-1.672 0-3.572.152-5.699.456v-11.228c0-1.254.133-2.147.399-2.679a1.89 1.89 0 011.253-1.026c.57-.152 1.596-.266 3.078-.342.076 0 .114-.114.114-.342 0-.228-.038-.342-.114-.342l-3.249.057c-1.899.076-3.476.114-4.73.114-1.292 0-2.736-.038-4.332-.114l-2.85-.057c-.076 0-.114.114-.114.342 0 .228.038.342.114.342 1.292.076 2.185.19 2.679.342.532.152.893.475 1.083.969.19.494.285 1.368.285 2.622v26.389c0 1.254-.114 2.147-.342 2.679-.19.494-.551.817-1.083.969-.494.114-1.387.209-2.679.285-.114 0-.171.114-.171.342 0 .228.057.342.171.342 1.406 0 2.508-.019 3.306-.057l3.648-.057c.836 0 1.805.038 2.907.114 1.102.038 1.9.057 2.393.057 1.33.114 2.489.171 3.477.171 2.47 0 4.674-.456 6.612-1.368 1.976-.912 3.515-2.185 4.617-3.818 1.102-1.672 1.652-3.61 1.652-5.814 0-3.078-1.063-5.396-3.191-6.954zm-5.13 14.477c-1.102 1.368-2.964 2.052-5.586 2.052-1.71 0-2.849-.285-3.419-.855-.532-.57-.798-1.425-.798-2.565v-13.622c1.519-.19 2.773-.285 3.761-.285 2.812 0 4.788.703 5.928 2.109 1.178 1.368 1.767 3.572 1.767 6.612 0 2.964-.551 5.148-1.653 6.554zm21.602 1.197c-.19-.532-.285-1.387-.285-2.565v-26.275c0-1.14.095-1.976.285-2.508.19-.57.57-.969 1.14-1.197.57-.228 1.443-.342 2.621-.342.114 0 .171-.114.171-.342 0-.228-.057-.342-.171-.342l-2.906.057c-1.748.076-3.211.114-4.389.114-1.064 0-2.47-.038-4.218-.114l-3.078-.057c-.076 0-.114.114-.114.342 0 .228.038.342.114.342 1.216 0 2.109.114 2.679.342.57.19.95.551 1.14 1.083.228.532.342 1.368.342 2.508v26.389c0 1.14-.114 1.995-.342 2.565-.19.532-.57.893-1.14 1.083-.57.19-1.463.285-2.679.285-.076 0-.114.114-.114.342 0 .228.038.342.114.342 1.292 0 2.318-.019 3.078-.057l4.218-.057 4.332.057c.722.038 1.709.057 2.963.057.114 0 .171-.114.171-.342 0-.228-.057-.342-.171-.342-1.216 0-2.108-.095-2.678-.285a1.707 1.707 0 01-1.083-1.083z" fill="url(#paint0_linear_399_2)"/><defs><linearGradient id="paint0_linear_399_2" x1="376.728" y1="14.247" x2="79.08" y2="358.761" gradientUnits="userSpaceOnUse"><stop stop-color="#32282B"/></linearGradient></defs></svg>