<svg width="81" height="51" fill="none" xmlns="http://www.w3.org/2000/svg"><path fill-rule="evenodd" clip-rule="evenodd" d="M40.339.273h7.458C48.533 1.932 49.2 3 49.964 3.818c.757.814 1.602 1.373 2.677 2.02-.44 5.534-1.591 9.421-3.585 12.682-1.987 3.248-4.817 5.885-8.643 8.91-3.826-3.025-6.656-5.662-8.643-8.91-1.994-3.26-3.145-7.148-3.585-12.683 1.075-.646 1.92-1.205 2.677-2.019.762-.818 1.43-1.886 2.167-3.545h7.31zM40.199 0h-7.347l-.035.082c-.744 1.69-1.407 2.75-2.153 3.55-.747.802-1.583 1.352-2.69 2.015l-.073.044.007.084c.437 5.607 1.597 9.563 3.63 12.887 1.942 3.174 4.672 5.762 8.302 8.66l.55.55.592-.546c3.633-2.9 6.365-5.489 8.307-8.664 2.033-3.324 3.194-7.28 3.63-12.887l.007-.084-.072-.044c-1.107-.663-1.943-1.213-2.69-2.014-.746-.801-1.409-1.861-2.153-3.55L47.974 0H40.2zm-6.475 1.265h13.343l.11.25c.64 1.455 1.201 2.345 1.82 3.009.619.664 1.316 1.125 2.276 1.7l.223.134-.02.26c-.383 4.916-1.435 8.419-3.27 11.373-1.83 2.947-4.419 5.314-7.81 7.988l-.002-.004-.003.003c-3.39-2.673-5.978-5.04-7.807-7.987-1.835-2.954-2.886-6.457-3.27-11.374l-.02-.259.223-.133c.961-.576 1.658-1.037 2.277-1.701.619-.664 1.18-1.554 1.82-3.009l.11-.25zm6.67 23.645c3.113-2.49 5.44-4.69 7.1-7.362 1.713-2.758 2.733-6.051 3.125-10.738-.868-.527-1.586-1.016-2.236-1.715-.666-.715-1.244-1.63-1.862-2.991H34.27c-.618 1.362-1.196 2.276-1.862 2.991-.65.699-1.368 1.188-2.236 1.715.392 4.687 1.412 7.98 3.124 10.739 1.659 2.67 3.985 4.871 7.098 7.36zM35.197 6.067c-.338-.287-.738-.22-.973 0a.593.593 0 00-.197.43c0 .16.068.36.282.569l.003.003a1.12 1.12 0 01.323-.053.26.26 0 01.074.011.401.401 0 11-.412.576.306.306 0 00-.047.174c.001.197.132.363.265.39l-.004.018c.125-.124.269-.222.423-.289.276-.12.591-.143.88-.026.292.118.531.368.674.74l.004.013.004.013c.121.48-.024.839-.288 1.062a1.167 1.167 0 01-.508.242.357.357 0 11.111-.51.622.622 0 00.109-.073c.124-.105.223-.282.146-.6-.105-.268-.262-.41-.419-.473a.689.689 0 00-.535.021c-.364.159-.68.597-.592 1.202.156.609.606.937 1.094.936.493-.002 1.101-.345 1.532-1.25a.228.228 0 01.026-.041l-.046-.046a.283.283 0 11.402-.398l.071.072c.802-.498 1.072-1.11 1.033-1.585-.04-.486-.406-.906-1.026-1.01-.61-.036-1.02.317-1.147.693a.689.689 0 00.024.535c.077.151.232.295.509.377.323.05.49-.064.585-.197a.621.621 0 00.063-.113.357.357 0 11.498-.152 1.166 1.166 0 01-.197.523c-.2.282-.544.457-1.034.377l-.013-.002-.012-.003c-.384-.11-.654-.327-.796-.608a1.134 1.134 0 01-.05-.88c.054-.158.14-.31.252-.445l-.018.005c-.038-.13-.215-.246-.41-.23a.305.305 0 00-.17.062.401.401 0 11-.54.458.22.22 0 01-.016-.071 1 1 0 01.063-.447zm2.657 3.08c.886-.559 1.278-1.304 1.222-1.989-.059-.715-.603-1.285-1.41-1.414l-.01-.002h-.01a1.656 1.656 0 00-1.026.253c-.17-.269-.508-.398-.796-.375a.77.77 0 00-.339.106 1.16 1.16 0 00-1.566.015 1.038 1.038 0 00-.338.754c-.002.282.116.572.363.835a.747.747 0 00-.14.45c.002.289.16.615.442.76a1.655 1.655 0 00-.165 1.045l.002.01.002.01c.198.792.813 1.286 1.53 1.284.7-.003 1.424-.476 1.905-1.446l.302.305-.288.27a.223.223 0 00.294.335.222.222 0 00.374.106l.164-.163 1.783 1.797-2.887 2.909-.163-.17.264-.264-.27-.27-.74-.768a.159.159 0 00-.228.22l.135.141a.293.293 0 00-.194.495l.066.068-.3.3-.057-.059a.293.293 0 00-.475.076l-.087-.09a.159.159 0 10-.229.22l.344.357-.002.002.673.673.281-.282.166.173-.725.73-.14-.145a.195.195 0 00-.281.27l.146.153-.35.353a.223.223 0 00.316.314l.343-.346.158.164a.195.195 0 00.281-.27l-.164-.171 1.223-1.232.326-.314-.007-.007 2.892-2.914 2.891 2.914-.007.007.326.314 1.223 1.232-.164.17a.195.195 0 00.281.271l.158-.164.343.346a.223.223 0 10.316-.314l-.35-.353.146-.152a.195.195 0 00-.281-.271l-.14.145-.725-.73.166-.173.281.282.673-.673-.002-.002.344-.357a.159.159 0 10-.229-.22l-.087.09a.293.293 0 00-.475-.076l-.056.06-.3-.301.064-.067a.293.293 0 00-.193-.496l.135-.14a.159.159 0 00-.229-.22l-.738.767-.27.27.263.264-.163.17-2.887-2.91 1.783-1.796.164.163a.223.223 0 00.374-.106.223.223 0 00.294-.336l-.288-.27.302-.304c.48.97 1.205 1.443 1.905 1.446.717.002 1.332-.492 1.53-1.284l.003-.01.001-.01a1.655 1.655 0 00-.165-1.044c.283-.146.44-.472.442-.761a.749.749 0 00-.14-.45c.248-.263.365-.553.363-.835a1.038 1.038 0 00-.338-.754 1.16 1.16 0 00-1.566-.015.77.77 0 00-.339-.106c-.288-.023-.626.106-.796.375a1.656 1.656 0 00-1.026-.254l-.01.001-.01.002c-.806.129-1.351.7-1.41 1.414-.056.685.336 1.43 1.222 1.988l-.294.297-.263-.247a.223.223 0 00-.313.317.223.223 0 00-.066.361l.108.107-1.781 1.795-1.782-1.795.108-.107a.223.223 0 00-.066-.361.223.223 0 00-.313-.317l-.263.247-.294-.297zm5.902.005c.01.012.018.026.025.041.43.905 1.04 1.248 1.532 1.25.488.001.938-.327 1.094-.936.089-.605-.227-1.043-.592-1.202a.689.689 0 00-.535-.021c-.157.063-.314.205-.42.473-.076.318.023.495.147.6.033.028.07.053.108.073a.357.357 0 11.112.51 1.167 1.167 0 01-.508-.242c-.264-.223-.409-.581-.288-1.062l.004-.013.004-.012c.143-.373.382-.623.674-.741.29-.117.604-.094.88.026.154.067.298.165.423.289l-.004-.018c.133-.027.264-.193.265-.39a.306.306 0 00-.047-.174.401.401 0 11-.412-.576.223.223 0 01.074-.01c.118.002.226.02.323.052l.003-.003c.214-.21.283-.409.282-.57a.592.592 0 00-.197-.429c-.235-.22-.635-.287-.973 0 .052.129.074.279.063.447a.223.223 0 01-.017.071.401.401 0 11-.539-.458.305.305 0 00-.17-.063c-.195-.015-.372.101-.41.23l-.018-.004c.113.135.198.287.252.446.096.286.092.601-.05.88-.142.28-.411.497-.796.607l-.012.003-.013.002c-.49.08-.834-.095-1.034-.377a1.166 1.166 0 01-.197-.523.357.357 0 11.499.152.59.59 0 00.062.113c.095.133.262.246.585.197.277-.082.432-.226.509-.377a.689.689 0 00.024-.535c-.127-.376-.536-.729-1.147-.692-.62.103-.986.523-1.026 1.009-.039.476.231 1.087 1.033 1.585l.07-.072a.283.283 0 11.403.398l-.045.046zm-3.379 5.865h-.688v.688h.688v-.688zm.88 0h-.688v.688h.688v-.688zm-.688.879h.688v.688h-.688v-.688zm-.192 0h-.688v.688h.688v-.688zM5.269 31.51c.415 0 .85.038 1.303.114.453.066.807.155 1.062.269.085.028.137.066.156.113a.544.544 0 01.07.213l.17 1.968c0 .029-.023.047-.07.057-.047.01-.076-.005-.085-.042-.321-.747-.75-1.323-1.289-1.729a3.02 3.02 0 00-1.87-.608c-.934 0-1.657.344-2.167 1.033-.51.69-.764 1.615-.764 2.776 0 .87.137 1.662.41 2.38.284.718.676 1.289 1.176 1.714.51.415 1.086.623 1.728.623a2.44 2.44 0 001.615-.595c.481-.406.91-1.02 1.288-1.841.01-.038.038-.052.085-.043.057.01.085.029.085.057l-.212 1.926a.573.573 0 01-.07.227.429.429 0 01-.157.1 7.399 7.399 0 01-2.592.467c-1.152 0-2.115-.227-2.889-.68-.774-.463-1.346-1.044-1.714-1.742A4.83 4.83 0 010 36.057c0-.897.24-1.69.722-2.38a4.89 4.89 0 011.94-1.6 6.104 6.104 0 012.607-.567zm7.364.482c-1.123 0-1.93.732-2.422 2.195-.01.029-.037.043-.085.043-.047-.01-.07-.029-.07-.057.037-.377.08-.864.127-1.459.047-.604.07-1.057.07-1.36 0-.047.024-.07.072-.07.056 0 .085.023.085.07 0 .208.269.312.807.312.812.028 1.76.043 2.847.043.557 0 1.147-.01 1.77-.029l.963-.014c.36 0 .619-.023.78-.07.17-.048.278-.142.325-.284.01-.038.038-.057.085-.057.057 0 .085.02.085.057-.028.283-.061.737-.099 1.36a34.545 34.545 0 00-.043 1.501c0 .029-.023.043-.07.043-.047 0-.076-.014-.085-.043-.142-.727-.406-1.27-.793-1.629-.388-.368-.864-.552-1.431-.552-.274 0-.458.061-.552.184-.085.113-.128.335-.128.666v6.53c0 .292.028.504.085.637a.476.476 0 00.326.269c.16.047.415.07.765.07.028 0 .042.029.042.086 0 .056-.014.084-.042.084-.34 0-.61-.004-.808-.014l-1.175-.014-1.148.014c-.198.01-.472.014-.821.014-.028 0-.043-.028-.043-.084 0-.057.015-.086.043-.086.34 0 .59-.023.75-.07.17-.048.284-.137.34-.27.067-.141.1-.353.1-.637v-6.558c0-.32-.043-.538-.128-.651-.085-.113-.26-.17-.524-.17zm15.825 8.357c.047 0 .07.028.07.084 0 .057-.023.086-.07.086a20.5 20.5 0 01-.878-.029 22.368 22.368 0 00-.893-.028c-.236 0-.524.01-.864.028-.32.02-.576.029-.764.029-.038 0-.057-.029-.057-.086 0-.056.019-.084.057-.084.245 0 .42-.024.524-.071a.293.293 0 00.17-.284c0-.16-.095-.43-.284-.807l-1.473-2.903h-2.52l-1.006 2.223a1.88 1.88 0 00-.185.765c0 .34.119.604.355.793.245.19.57.283.977.283.047 0 .07.029.07.086 0 .056-.023.084-.07.084-.17 0-.416-.009-.737-.028a18.08 18.08 0 00-.934-.028c-.256 0-.562.01-.921.028-.321.02-.58.029-.78.029-.037 0-.056-.029-.056-.086 0-.056.02-.084.057-.084.264 0 .486-.052.666-.156.179-.114.358-.307.538-.581.18-.283.392-.699.637-1.246l3.074-6.756c.018-.029.061-.043.127-.043.076 0 .118.014.128.042l3.54 6.97c.331.67.605 1.132.822 1.387.217.255.444.383.68.383zm-6.799-4.462h2.139l-1.133-2.238-1.006 2.238zm10.55 3.428c0 .302.033.524.099.665.066.133.189.227.368.284.189.056.486.084.892.084.029 0 .043.029.043.086 0 .056-.014.084-.043.084-.387 0-.689-.004-.906-.014l-1.232-.014-1.034.014c-.19.01-.444.014-.765.014-.028 0-.043-.028-.043-.084 0-.057.015-.086.043-.086.302 0 .52-.023.651-.07a.425.425 0 00.284-.27c.047-.141.07-.353.07-.637v-6.558c0-.283-.023-.49-.07-.623a.426.426 0 00-.284-.269c-.141-.056-.358-.085-.651-.085-.028 0-.043-.028-.043-.085 0-.056.015-.085.043-.085l.75.014c.435.02.78.029 1.035.029.226 0 .495-.015.807-.043a13.134 13.134 0 011.119-.043c.963 0 1.723.204 2.28.61.557.396.836 1.015.836 1.855 0 .586-.151 1.081-.453 1.487a2.836 2.836 0 01-1.176.921 3.586 3.586 0 01-1.459.312c-.255 0-.477-.024-.665-.071-.02 0-.029-.024-.029-.071a.28.28 0 01.014-.085c.02-.028.038-.038.057-.028.142.037.302.056.481.056.435 0 .794-.203 1.077-.609.293-.406.439-.982.439-1.728s-.16-1.322-.481-1.728c-.312-.406-.77-.609-1.374-.609-.265 0-.444.062-.539.184-.094.123-.141.364-.141.723v6.473zm10.08-3.796c1.001 0 1.766.198 2.295.595.529.387.793.963.793 1.728 0 .547-.137 1.029-.41 1.444a2.721 2.721 0 01-1.148.95c-.481.226-1.029.34-1.643.34-.245 0-.533-.015-.864-.043-.122 0-.32-.005-.595-.014a10.644 10.644 0 00-.722-.029l-.906.014c-.199.01-.473.014-.822.014-.028 0-.043-.028-.043-.084 0-.057.015-.086.043-.086a4.65 4.65 0 00.666-.07.384.384 0 00.269-.241c.056-.132.085-.354.085-.666v-6.558c0-.311-.024-.528-.071-.651a.385.385 0 00-.27-.24c-.122-.039-.344-.067-.665-.086-.019 0-.028-.028-.028-.085 0-.056.01-.085.028-.085l.708.014a21.501 21.501 0 002.252 0l.808-.014c.019 0 .028.028.028.085 0 .057-.01.085-.028.085-.368.019-.623.047-.765.085a.47.47 0 00-.312.255c-.066.132-.099.354-.099.666v2.79a10.136 10.136 0 011.416-.113zm-.368 4.702c.652 0 1.114-.17 1.388-.51.274-.35.411-.892.411-1.629 0-.755-.146-1.303-.439-1.643-.283-.349-.774-.524-1.473-.524-.245 0-.557.024-.935.071v3.385c0 .284.066.496.198.638.142.141.425.212.85.212zm6.685-.85c0 .293.024.505.071.638a.424.424 0 00.27.269c.141.047.363.07.665.07.029 0 .043.029.043.086 0 .056-.014.084-.043.084-.311 0-.557-.004-.736-.014l-1.077-.014-1.048.014c-.189.01-.444.014-.765.014-.019 0-.028-.028-.028-.084 0-.057.01-.086.028-.086.302 0 .524-.023.666-.07a.425.425 0 00.283-.27c.057-.141.085-.353.085-.637v-6.558c0-.283-.028-.49-.085-.623a.425.425 0 00-.283-.269c-.142-.056-.364-.085-.666-.085-.019 0-.028-.028-.028-.085 0-.056.01-.085.028-.085l.765.014c.434.02.784.029 1.048.029.293 0 .657-.01 1.09-.029l.723-.014c.029 0 .043.028.043.085 0 .057-.014.085-.043.085-.293 0-.51.029-.651.085a.467.467 0 00-.284.298c-.047.132-.07.34-.07.623v6.53zm2.802 1.148c-.029 0-.043-.029-.043-.086 0-.056.014-.084.043-.084.33 0 .57-.024.722-.071a.428.428 0 00.297-.27c.057-.141.085-.353.085-.637v-6.558c0-.283-.023-.49-.07-.623a.426.426 0 00-.284-.269c-.141-.056-.358-.085-.651-.085-.029 0-.043-.028-.043-.085 0-.056.014-.085.043-.085h6.175c.095 0 .142.043.142.128l.028 2.38c0 .028-.028.046-.085.056-.047 0-.075-.014-.085-.043-.16-.727-.434-1.26-.821-1.6-.387-.34-.897-.51-1.53-.51h-.425c-.283 0-.49.061-.623.184-.132.123-.198.312-.198.567v6.487c0 .292.037.51.113.651.075.142.217.24.425.298.208.056.533.084.977.084.019 0 .028.029.028.086 0 .056-.009.084-.028.084-.387 0-.69-.004-.906-.014l-1.445-.014-1.062.014c-.19.01-.449.014-.78.014zm17.88-.17c.028 0 .042.028.042.084 0 .057-.014.086-.043.086-.33 0-.594-.005-.793-.015l-1.09-.014-1.275.014c-.17.01-.401.014-.694.014-.028 0-.043-.028-.043-.084 0-.057.015-.086.043-.086.35 0 .604-.023.765-.07a.476.476 0 00.325-.27c.057-.132.085-.344.085-.637v-5.368l-4.404 4.717v.651c0 .284.028.496.085.638a.476.476 0 00.325.269c.16.047.416.07.765.07.02 0 .029.029.029.086 0 .056-.01.084-.029.084-.33 0-.595-.004-.793-.014l-1.232-.014-1.063.014c-.188.01-.448.014-.779.014-.018 0-.028-.028-.028-.084 0-.057.01-.086.029-.086.33 0 .57-.023.722-.07a.471.471 0 00.311-.27c.057-.141.085-.353.085-.637v-6.558c0-.283-.028-.49-.085-.623a.472.472 0 00-.311-.269c-.142-.056-.373-.085-.694-.085-.029 0-.043-.028-.043-.085 0-.056.014-.085.043-.085l.765.014c.434.02.783.029 1.048.029.359 0 .774-.01 1.246-.029l.78-.014c.018 0 .028.028.028.085 0 .057-.01.085-.029.085-.34 0-.59.029-.75.085a.563.563 0 00-.34.298c-.057.132-.085.34-.085.623v5.297l4.404-4.702v-.595c0-.284-.028-.491-.085-.623a.513.513 0 00-.325-.298c-.16-.056-.416-.085-.765-.085-.028 0-.043-.028-.043-.085 0-.056.015-.085.043-.085l.694.014c.472.02.897.029 1.275.029.255 0 .618-.01 1.09-.029l.793-.014c.029 0 .043.028.043.085 0 .057-.014.085-.043.085-.32 0-.557.029-.708.085a.472.472 0 00-.311.27c-.057.131-.085.34-.085.622v6.558c0 .284.028.496.085.638.056.132.16.221.311.269.151.047.387.07.708.07zm11.528 0c.028 0 .043.028.043.084 0 .057-.015.086-.043.086-.33 0-.595-.005-.793-.015l-1.09-.014-1.276.014c-.17.01-.4.014-.694.014-.028 0-.042-.028-.042-.084 0-.057.014-.086.042-.086.35 0 .605-.023.765-.07a.476.476 0 00.326-.27c.057-.132.085-.344.085-.637v-3.257h-4.575v3.257c0 .284.029.496.085.638a.476.476 0 00.326.269c.16.047.415.07.765.07.019 0 .028.029.028.086 0 .056-.01.084-.028.084-.33 0-.595-.004-.793-.014l-1.233-.014-1.062.014c-.189.01-.448.014-.779.014-.019 0-.028-.028-.028-.084 0-.057.01-.086.028-.086.33 0 .571-.023.722-.07a.472.472 0 00.312-.27c.057-.141.085-.353.085-.637v-6.558c0-.283-.028-.49-.085-.623a.472.472 0 00-.311-.269c-.142-.056-.374-.085-.695-.085-.028 0-.042-.028-.042-.085 0-.056.014-.085.042-.085l.765.014c.435.02.784.029 1.048.029.36 0 .775-.01 1.247-.029l.779-.014c.019 0 .028.028.028.085 0 .057-.01.085-.028.085-.34 0-.59.029-.75.085a.563.563 0 00-.34.298c-.058.132-.086.34-.086.623v2.875h4.575v-2.875c0-.284-.028-.491-.085-.623a.513.513 0 00-.326-.298c-.16-.056-.415-.085-.764-.085-.029 0-.043-.028-.043-.085 0-.056.014-.085.042-.085l.695.014c.472.02.897.029 1.274.029.255 0 .619-.01 1.09-.029l.794-.014c.028 0 .043.028.043.085 0 .057-.015.085-.043.085-.321 0-.562.029-.722.085a.472.472 0 00-.312.27c-.047.131-.07.34-.07.622v6.558c0 .284.023.496.07.638.057.132.16.221.312.269.15.047.392.07.722.07zm-62.59 9.83c0-.032-.008-.049-.024-.049-.185 0-.321-.013-.408-.04a.271.271 0 01-.18-.155 1.042 1.042 0 01-.049-.368V45.79a.97.97 0 01.05-.36.271.271 0 01.179-.154 1.25 1.25 0 01.408-.05c.016 0 .024-.016.024-.048 0-.033-.008-.05-.024-.05l-.457.009c-.272.01-.482.016-.629.016-.217 0-.462-.005-.734-.016l-.4-.008c-.016 0-.024.016-.024.049 0 .032.008.049.024.049.202 0 .349.016.441.048.093.033.155.09.188.172a.97.97 0 01.049.359v.343l-2.538 2.709v-3.052c0-.163.016-.283.049-.36a.324.324 0 01.196-.17c.092-.033.236-.05.432-.05.011 0 .017-.016.017-.048 0-.033-.006-.05-.017-.05l-.448.009c-.273.01-.512.016-.719.016-.152 0-.353-.005-.603-.016l-.441-.008c-.016 0-.024.016-.024.049 0 .032.008.049.024.049.185 0 .318.016.4.048a.271.271 0 01.18.156.97.97 0 01.048.359v3.777c0 .164-.016.286-.049.368a.271.271 0 01-.18.155c-.086.027-.225.04-.415.04-.011 0-.017.017-.017.05 0 .032.006.048.017.048.19 0 .34-.002.449-.008l.611-.008.71.008c.114.006.267.008.457.008.011 0 .017-.016.017-.049 0-.032-.006-.049-.017-.049a1.71 1.71 0 01-.44-.04.274.274 0 01-.188-.155 1.045 1.045 0 01-.049-.368v-.375l2.538-2.717v3.092c0 .17-.017.291-.05.368a.273.273 0 01-.187.155 1.71 1.71 0 01-.44.04c-.017 0-.025.017-.025.05 0 .032.008.048.024.048.169 0 .302-.002.4-.008l.734-.008.629.008c.114.006.266.008.457.008.016 0 .024-.016.024-.049zm8.856 0c0-.032-.008-.049-.024-.049-.185 0-.321-.013-.409-.04a.271.271 0 01-.179-.155 1.045 1.045 0 01-.049-.368v-3.68c0-.244.04-.416.123-.514.087-.098.258-.146.514-.146.016 0 .024-.017.024-.05 0-.032-.008-.048-.024-.048h-.27a147.426 147.426 0 01-4.797.008 17.382 17.382 0 00-.54-.008c-.015 0-.024.016-.024.049 0 .032.009.049.025.049.256 0 .424.048.506.146.081.098.122.27.122.514v3.68c0 .164-.016.286-.049.368a.271.271 0 01-.18.155c-.086.027-.225.04-.415.04-.011 0-.017.017-.017.05 0 .032.006.048.017.048.185 0 .331-.002.44-.008l.604-.008.677.008c.114.006.267.008.457.008.017 0 .025-.016.025-.049 0-.032-.008-.049-.025-.049-.19 0-.329-.013-.416-.04a.27.27 0 01-.171-.155 1.189 1.189 0 01-.041-.368v-3.68c0-.184.005-.307.016-.367a.152.152 0 01.106-.114 1.38 1.38 0 01.327-.024h1.672c.147 0 .245.008.294.024.05.016.079.055.09.114.016.06.024.182.024.367v3.68c0 .164-.016.286-.049.368a.247.247 0 01-.17.155c-.088.027-.224.04-.409.04-.016 0-.024.017-.024.05 0 .032.008.048.024.048.19 0 .343-.002.457-.008l.677-.008.596.008c.109.006.256.008.44.008.017 0 .025-.016.025-.049zm6.536 0c0-.032-.014-.049-.041-.049-.136 0-.267-.073-.392-.22-.125-.147-.283-.413-.473-.8l-2.04-4.014c-.005-.016-.03-.025-.073-.025-.038 0-.063.009-.074.025l-1.77 3.892a5.99 5.99 0 01-.368.718c-.103.158-.206.27-.31.335a.755.755 0 01-.383.09c-.022 0-.033.016-.033.048 0 .033.011.05.033.05.114 0 .264-.006.448-.017.207-.01.384-.016.53-.016.153 0 .333.005.54.016.184.01.326.016.424.016.027 0 .04-.016.04-.049 0-.032-.013-.049-.04-.049-.234 0-.422-.054-.563-.163a.552.552 0 01-.204-.457c0-.136.035-.283.106-.44l.58-1.281h1.451l.85 1.672c.108.218.162.373.162.465 0 .077-.032.131-.098.164a.795.795 0 01-.302.04c-.021 0-.032.017-.032.05 0 .032.01.048.033.048.108 0 .255-.005.44-.016.196-.01.362-.016.498-.016.103 0 .275.005.514.016.228.01.397.016.506.016.027 0 .04-.016.04-.049zm-2.726-2.619H29.66l.58-1.289.652 1.29zm4.903 2.358c-.038-.081-.057-.21-.057-.383v-3.73c0-.206.027-.344.081-.415.055-.071.158-.106.31-.106.348 0 .612.117.792.35.185.235.277.566.277.996 0 .43-.084.762-.253.995-.163.234-.37.351-.62.351-.103 0-.196-.01-.277-.032-.011-.006-.022 0-.033.016a.155.155 0 00-.008.049c0 .027.005.04.016.04.109.028.237.042.384.042.288 0 .568-.06.84-.18a1.63 1.63 0 00.677-.53c.174-.234.261-.52.261-.857 0-.484-.16-.84-.481-1.069-.32-.234-.759-.35-1.314-.35a7.668 7.668 0 00-.644.024c-.18.016-.335.024-.465.024-.147 0-.346-.005-.596-.016l-.432-.008c-.017 0-.025.016-.025.049 0 .032.008.049.025.049.168 0 .293.016.375.048a.245.245 0 01.163.156c.027.076.04.195.04.359v3.777c0 .164-.013.286-.04.368a.245.245 0 01-.163.155c-.076.027-.201.04-.375.04-.017 0-.025.017-.025.05 0 .032.008.048.025.048.184 0 .331-.002.44-.008l.596-.008.71.008c.125.006.299.008.522.008.016 0 .024-.016.024-.049 0-.032-.008-.049-.024-.049-.234 0-.405-.016-.514-.048a.334.334 0 01-.212-.164zm3.514-3.337c.283-.843.748-1.265 1.396-1.265.152 0 .253.033.302.098.048.066.073.19.073.376v3.777a.906.906 0 01-.057.368c-.033.076-.098.127-.196.155-.093.027-.237.04-.432.04-.017 0-.025.017-.025.05 0 .032.008.048.025.048.2 0 .358-.002.473-.008l.66-.008.678.008c.114.006.27.008.465.008.016 0 .025-.016.025-.049 0-.032-.009-.049-.025-.049a1.71 1.71 0 01-.44-.04.274.274 0 01-.188-.155 1.004 1.004 0 01-.05-.368v-3.761c0-.19.025-.318.074-.384.055-.07.16-.106.318-.106.327 0 .602.106.825.319.223.206.375.519.456.938.006.016.022.024.05.024.027 0 .04-.008.04-.024a20.001 20.001 0 01.082-1.648c0-.022-.017-.033-.05-.033-.026 0-.043.01-.048.033-.027.081-.09.136-.188.163a1.77 1.77 0 01-.449.04l-.554.009c-.36.01-.7.016-1.02.016a48.68 48.68 0 01-1.64-.024c-.31 0-.466-.06-.466-.18 0-.027-.016-.04-.048-.04-.028 0-.041.013-.041.04 0 .174-.014.435-.041.783-.027.343-.052.623-.073.84 0 .017.013.028.04.033.028 0 .044-.008.05-.024zm11.233 3.598c0-.032-.009-.049-.025-.049-.19 0-.329-.013-.416-.04a.271.271 0 01-.18-.155 1.238 1.238 0 01-.04-.368V45.79c0-.164.013-.283.04-.36a.272.272 0 01.18-.154 1.33 1.33 0 01.416-.05c.016 0 .024-.016.024-.048 0-.033-.008-.05-.024-.05l-.457.009c-.272.01-.481.016-.628.016-.218 0-.463-.005-.735-.016l-.4-.008c-.016 0-.024.016-.024.049 0 .032.008.049.025.049.2 0 .348.016.44.048.093.033.155.09.188.172a.97.97 0 01.049.359v1.656h-2.636v-1.656a.97.97 0 01.05-.36.324.324 0 01.195-.17c.093-.033.237-.05.433-.05.01 0 .016-.016.016-.048 0-.033-.005-.05-.016-.05l-.45.009c-.271.01-.51.016-.717.016-.153 0-.354-.005-.604-.016l-.44-.008c-.017 0-.025.016-.025.049 0 .032.008.049.024.049.185 0 .319.016.4.048a.272.272 0 01.18.156.973.973 0 01.049.359v3.777c0 .164-.017.286-.05.368a.271.271 0 01-.179.155c-.087.027-.225.04-.416.04-.01 0-.016.017-.016.05 0 .032.005.048.016.048.19 0 .34-.002.449-.008l.612-.008.71.008c.114.006.266.008.457.008.01 0 .016-.016.016-.049 0-.032-.005-.049-.016-.049a1.71 1.71 0 01-.441-.04.274.274 0 01-.188-.155 1.045 1.045 0 01-.049-.368v-1.876h2.636v1.876c0 .17-.016.291-.05.368a.274.274 0 01-.187.155 1.71 1.71 0 01-.44.04c-.017 0-.025.017-.025.05 0 .032.008.048.025.048.168 0 .302-.002.4-.008l.734-.008.628.008c.114.006.267.008.457.008.016 0 .024-.016.024-.049zm4.721-1.264c-.021 0-.032.005-.032.016-.12.364-.308.634-.563.808-.256.174-.596.26-1.02.26h-.27c-.13 0-.225-.037-.285-.113-.06-.077-.09-.193-.09-.351v-1.844h.67c.32 0 .565.065.733.196a.605.605 0 01.262.522c0 .01.016.016.049.016.032 0 .049-.005.049-.016 0-.109-.006-.256-.017-.44l-.008-.392.008-.735c0-.016-.016-.024-.049-.024-.027 0-.04.008-.04.024a.515.515 0 01-.253.457c-.17.109-.411.163-.727.163h-.677V45.8c0-.147.038-.256.114-.327.076-.07.196-.106.36-.106h.244c.337 0 .61.076.816.229.207.152.354.386.44.702.006.016.022.021.05.016.032-.006.049-.014.049-.025l-.017-1.085c0-.049-.027-.073-.081-.073h-3.46c-.016 0-.025.016-.025.049 0 .032.009.049.025.049.169 0 .294.016.375.048a.245.245 0 01.163.156c.028.076.041.195.041.359v3.777c0 .164-.013.286-.04.368a.245.245 0 01-.164.155c-.076.027-.2.04-.375.04-.016 0-.025.017-.025.05 0 .032.009.048.025.048h3.606c.05 0 .082-.008.098-.024a.163.163 0 00.025-.098c0-.348.027-.734.081-1.159 0-.005-.008-.01-.024-.016a.055.055 0 00-.04-.016zm-2.684-4.537a.471.471 0 00.334.114c.136 0 .24-.038.31-.114a.47.47 0 00.115-.335.419.419 0 00-.115-.31c-.07-.076-.174-.114-.31-.114a.459.459 0 00-.326.114.403.403 0 00-.123.31c0 .142.039.253.115.335zm1.428 0c.076.076.185.114.326.114.136 0 .24-.038.31-.114a.47.47 0 00.114-.335c0-.13-.038-.23-.114-.301-.07-.077-.174-.115-.31-.115a.459.459 0 00-.326.114.394.394 0 00-.115.302.47.47 0 00.115.335zm3.906 5.54c-.038-.081-.057-.21-.057-.383v-3.73c0-.206.027-.344.082-.415.054-.071.157-.106.31-.106.348 0 .612.117.791.35.185.235.277.566.277.996 0 .43-.084.762-.252.995-.164.234-.37.351-.62.351-.104 0-.196-.01-.278-.032-.01-.006-.022 0-.033.016a.155.155 0 00-.008.049c0 .027.006.04.017.04.108.028.236.042.383.042.288 0 .569-.06.84-.18.278-.12.504-.296.678-.53.174-.234.26-.52.26-.857 0-.484-.16-.84-.48-1.069-.322-.234-.76-.35-1.314-.35a7.666 7.666 0 00-.645.024 5.24 5.24 0 01-.465.024c-.147 0-.345-.005-.596-.016l-.432-.008c-.016 0-.025.016-.025.049 0 .032.009.049.025.049.169 0 .294.016.375.048a.245.245 0 01.163.156c.028.076.041.195.041.359v3.777c0 .164-.013.286-.04.368a.245.245 0 01-.164.155c-.076.027-.201.04-.375.04-.016 0-.025.017-.025.05 0 .032.009.048.025.048.185 0 .332-.002.44-.008l.596-.008.71.008c.125.006.3.008.522.008.017 0 .025-.016.025-.049 0-.032-.008-.049-.025-.049-.234 0-.405-.016-.514-.048a.334.334 0 01-.212-.164zm7.072-2.227c-.304-.229-.745-.343-1.322-.343-.239 0-.51.022-.816.065v-1.607c0-.18.02-.307.058-.384a.27.27 0 01.18-.147c.08-.021.227-.038.44-.048.01 0 .016-.017.016-.05 0-.032-.005-.048-.016-.048l-.465.008a13.12 13.12 0 01-1.297 0l-.409-.008c-.01 0-.016.016-.016.049 0 .032.005.049.016.049.185.01.313.027.384.048a.222.222 0 01.155.14c.027.07.04.195.04.375v3.777c0 .18-.016.308-.048.384a.221.221 0 01-.155.139c-.071.016-.199.03-.384.04-.016 0-.024.017-.024.05 0 .032.008.048.024.048.201 0 .36-.002.473-.008l.523-.008c.12 0 .258.005.416.016.157.006.272.008.342.008.19.017.357.025.498.025.354 0 .67-.065.947-.196.282-.13.503-.313.66-.547.158-.239.237-.516.237-.832 0-.44-.152-.772-.457-.995zm-.734 2.072c-.158.196-.424.294-.8.294-.245 0-.408-.04-.49-.122-.075-.082-.114-.204-.114-.368v-1.95a4.5 4.5 0 01.539-.04c.402 0 .685.1.849.301.168.196.252.512.252.947 0 .424-.078.737-.236.938zm3.092.172a1.189 1.189 0 01-.04-.368v-3.761c0-.163.013-.283.04-.36a.27.27 0 01.163-.17c.082-.033.207-.05.376-.05.016 0 .024-.016.024-.048 0-.033-.008-.05-.024-.05l-.416.009c-.25.01-.46.016-.629.016-.152 0-.353-.005-.603-.016l-.441-.008c-.01 0-.016.016-.016.049 0 .032.005.049.016.049.174 0 .302.016.383.048a.245.245 0 01.164.156.97.97 0 01.049.359v3.777c0 .164-.017.286-.05.368a.245.245 0 01-.162.155c-.082.027-.21.04-.384.04-.01 0-.016.017-.016.05 0 .032.005.048.016.048.185 0 .332-.002.44-.008l.604-.008.62.008c.104.006.245.008.425.008.016 0 .024-.016.024-.049 0-.032-.008-.049-.024-.049-.174 0-.302-.013-.384-.04a.244.244 0 01-.155-.155z" fill="#fff"/></svg>